<svg xmlns="http://www.w3.org/2000/svg" viewBox="0 0 38 37" width="38" height="37">
	<defs>
		<clipPath clipPathUnits="userSpaceOnUse" id="cp1">
			<path d="M27.7 10.97C23.01 6.28 15.41 6.28 10.73 10.97C6.04 15.66 6.04 23.25 10.73 27.94C15.41 32.63 23.01 32.63 27.7 27.94C32.38 23.25 32.38 15.66 27.7 10.97Z" />
		</clipPath>
	</defs>
	<style>
		tspan { white-space:pre }
		.shp0 { fill: #6b56a5;stroke: #f17d49;stroke-width: 0.5 } 
		.shp1 { fill: #ffffff } 
	</style>
	<path id="Layer" fill-rule="evenodd" class="shp0" d="M27.7 10.97C23.01 6.28 15.41 6.28 10.73 10.97C6.04 15.66 6.04 23.25 10.73 27.94C15.41 32.63 23.01 32.63 27.7 27.94C32.38 23.25 32.38 15.66 27.7 10.97Z" />
	<g id="Clip-Path" clip-path="url(#cp1)">
		<g id="Layer">
		</g>
	</g>
	<path id="Layer" fill-rule="evenodd" class="shp1" d="M21.78 19.46C22.17 19.07 22.17 18.44 21.78 18.05L18.95 15.22C18.56 14.83 17.93 14.83 17.54 15.22C17.15 15.61 17.15 16.25 17.54 16.64L19.66 18.76L17.54 20.88C17.15 21.27 17.15 21.9 17.54 22.29C17.93 22.68 18.56 22.68 18.95 22.29L21.78 19.46Z" />
</svg>