<svg width="38" height="37" viewBox="0 0 38 37" fill="none" xmlns="http://www.w3.org/2000/svg">
<path fill-rule="evenodd" clip-rule="evenodd" d="M27.6982 10.9705C23.0119 6.28426 15.4139 6.28426 10.7276 10.9705C6.04132 15.6568 6.04132 23.2548 10.7276 27.9411C15.4139 32.6274 23.0119 32.6274 27.6982 27.9411C32.3845 23.2548 32.3845 15.6568 27.6982 10.9705Z" stroke="white" stroke-width="0.5"/>
<mask id="mask0" mask-type="alpha" maskUnits="userSpaceOnUse" x="6" y="7" width="26" height="25">
<path fill-rule="evenodd" clip-rule="evenodd" d="M27.6982 10.9705C23.0119 6.28426 15.4139 6.28426 10.7276 10.9705C6.04132 15.6568 6.04132 23.2548 10.7276 27.9411C15.4139 32.6274 23.0119 32.6274 27.6982 27.9411C32.3845 23.2548 32.3845 15.6568 27.6982 10.9705Z" fill="white" stroke="white" stroke-width="0.5"/>
</mask>
<g mask="url(#mask0)">
</g>
<path fill-rule="evenodd" clip-rule="evenodd" d="M21.7782 19.4645C22.1688 19.0739 22.1688 18.4408 21.7782 18.0502L18.9498 15.2218C18.5593 14.8313 17.9261 14.8313 17.5356 15.2218C17.1451 15.6123 17.1451 16.2455 17.5356 16.636L19.6569 18.7574L17.5356 20.8787C17.1451 21.2692 17.1451 21.9024 17.5356 22.2929C17.9261 22.6834 18.5593 22.6834 18.9498 22.2929L21.7782 19.4645Z"/>
</svg>
