<svg width="38" height="38" viewBox="0 0 38 38" fill="none" xmlns="http://www.w3.org/2000/svg">
<path fill-rule="evenodd" clip-rule="evenodd" d="M27.7782 11.4645C23.092 6.77821 15.494 6.77821 10.8077 11.4645C6.1214 16.1508 6.1214 23.7488 10.8077 28.4351C15.494 33.1214 23.092 33.1214 27.7782 28.4351C32.4645 23.7488 32.4645 16.1508 27.7782 11.4645Z" stroke="#6B56A5" stroke-width="0.5"/>
<mask id="mask0" mask-type="alpha" maskUnits="userSpaceOnUse" x="1" y="2" width="36" height="36">
<path fill-rule="evenodd" clip-rule="evenodd" d="M27.7782 11.4645C23.092 6.77821 15.494 6.77821 10.8077 11.4645C6.1214 16.1508 6.1214 23.7488 10.8077 28.4351C15.494 33.1214 23.092 33.1214 27.7782 28.4351C32.4645 23.7488 32.4645 16.1508 27.7782 11.4645Z" fill="white" stroke="white" stroke-width="0.5"/>
</mask>
<g mask="url(#mask0)">
</g>
<path fill-rule="evenodd" clip-rule="evenodd" d="M21.8583 19.9584C22.2488 19.5679 22.2488 18.9347 21.8583 18.5442L19.0299 15.7157C18.6394 15.3252 18.0062 15.3252 17.6157 15.7157C17.2252 16.1063 17.2252 16.7394 17.6157 17.13L19.737 19.2513L17.6157 21.3726C17.2252 21.7631 17.2252 22.3963 17.6157 22.7868C18.0062 23.1773 18.6394 23.1773 19.0299 22.7868L21.8583 19.9584Z" fill="#6B56A5"/>
</svg>
