<svg width="13" height="16" viewBox="0 0 13 16" fill="none" xmlns="http://www.w3.org/2000/svg">
<path fill-rule="evenodd" clip-rule="evenodd" d="M11.0144 14.4992H1.16063V1.16355H6.37183V5.22286C6.37183 5.54655 6.63137 5.80609 6.94923 5.80609H11.0144V14.4992ZM7.53246 1.98008L10.1949 4.64546H7.53246V1.98008ZM12.0059 4.81459L7.36332 0.169138C7.25251 0.0612395 7.1067 0 6.94923 0H0.580317C0.259539 0 0 0.259539 0 0.583234V15.0795C0 15.4003 0.259539 15.6569 0.580317 15.6569H11.5947C11.9155 15.6569 12.175 15.4003 12.175 15.0795V5.22286C12.175 5.07122 12.1167 4.92249 12.0059 4.81459V4.81459Z" fill="white"/>
</svg>
