<svg width="91" height="90" viewBox="0 0 91 90" fill="none" xmlns="http://www.w3.org/2000/svg">
<path fill-rule="evenodd" clip-rule="evenodd" d="M46 90C70.8528 90 91 69.8528 91 45C91 20.1472 70.8528 0 46 0C21.1472 0 1 20.1472 1 45C1 69.8528 21.1472 90 46 90Z" fill="#6B56A5"/>
<path fill-rule="evenodd" clip-rule="evenodd" d="M3.28056 3.61564C2.36287 3.61564 1.61564 4.36287 1.61564 5.28056V18.0142C1.61564 18.9319 2.36287 19.6791 3.28056 19.6791H20.021L23.1796 22.3878L23.1045 19.6791H28.9652C29.8837 19.6791 30.6301 18.9319 30.6301 18.0142V5.28056C30.6301 4.36287 29.8837 3.61564 28.9652 3.61564H3.28056ZM24.8962 25.9874L19.4224 21.2948H3.28056C1.47185 21.2948 0 19.8229 0 18.0142V5.28056C0 3.47185 1.47185 2 3.28056 2H28.9652C30.7739 2 32.2457 3.47185 32.2457 5.28056V18.0142C32.2457 19.8229 30.7739 21.2948 28.9652 21.2948H24.7661L24.8962 25.9874ZM36.6892 38.1207C38.6578 41.8035 42.0515 46.2562 47.0414 46.5592C49.9839 46.7304 52.7438 45.4705 54.9679 43.5294C55.058 43.2616 55.2794 43.0676 55.5413 43.0027C57.182 41.4177 58.4857 39.4668 59.2903 37.4938C61.8574 31.1901 62.0756 25.943 59.9599 21.7995C53.3522 24.3979 45.762 24.3525 39.1859 21.5557C39.0784 23.0209 38.8327 24.4714 38.4545 25.8851C38.8258 25.6537 39.2639 25.5198 39.7327 25.5198H45.0352C46.1969 25.5198 47.1695 26.3407 47.4045 27.4324C47.5227 27.4115 47.6434 27.3972 47.7664 27.3898C47.9942 27.3758 48.2299 27.3924 48.4611 27.4377C48.6943 26.3434 49.6687 25.5198 50.8315 25.5198H56.1332C57.4702 25.5198 58.5567 26.6072 58.5567 27.9433V31.4016C58.5567 32.7385 57.4702 33.825 56.1332 33.825H50.8315C49.4954 33.825 48.408 32.7385 48.408 31.4016V29.1045L48.3842 29.0925L48.408 29.1011V29.0985C48.3709 29.0829 48.3336 29.0673 48.2963 29.0515C48.3259 29.0645 48.3552 29.0782 48.3842 29.0925C48.284 29.057 48.1817 29.0294 48.0768 29.0093C48.1155 29.0124 48.1542 29.0165 48.1929 29.0216L48.0486 29.0021L47.9772 28.9925C48.0107 28.9974 48.0439 29.0029 48.0768 29.0093C47.9583 28.9998 47.8402 28.9997 47.7224 29.0088C47.7611 29.0015 47.8 28.9953 47.8391 28.9901C47.768 28.999 47.6961 29.0086 47.6258 29.0183C47.658 29.0145 47.6902 29.0113 47.7224 29.0088C47.6333 29.0255 47.5452 29.0477 47.4587 29.0754V31.4016C47.4587 32.7385 46.3722 33.825 45.0352 33.825H39.7327C38.3966 33.825 37.3092 32.7385 37.3092 31.4016V29.1637C36.6928 30.5784 35.9339 31.9331 35.0392 33.202C35.3078 34.833 35.8248 36.5031 36.6892 38.1207ZM37.5465 20.5251C37.5608 20.586 37.584 20.6451 37.617 20.7011C37.4864 24.1751 36.511 27.5486 34.8048 30.5561C34.7504 27.1575 35.6155 24.1852 36.3757 22.5879C36.5827 22.1528 36.9697 21.4022 37.5465 20.5251ZM38.2633 19.5117C39.6098 17.7408 41.636 15.7704 44.4071 14.8442C47.518 13.8021 51.0142 14.2771 54.7262 16.2102C56.5716 17.4163 58.0349 18.8078 59.1152 20.3815C52.5944 22.8692 45.1028 22.6951 38.7578 19.5921C38.5857 19.5082 38.4174 19.4872 38.2633 19.5117ZM60.6159 19.7539C59.4532 17.9673 57.8036 16.2952 55.5421 14.8183C51.3575 12.634 47.4404 12.1267 43.8941 13.3117C38.4954 15.1172 35.6584 20.3365 34.9168 21.894C32.936 26.0551 32.1993 33.1469 35.2642 38.8817C36.1045 40.4541 37.1894 42.1548 38.5385 43.6671C38.6104 43.9731 38.6832 44.274 38.755 44.5705L38.807 44.7852L38.8075 44.7873C40.0513 49.9101 40.873 53.2946 31.7636 58.0843C26.8359 61.3197 23.1353 66.7369 21.0608 73.7504C19.5042 79.0125 19.4 83.2649 19.3967 83.4434C19.387 83.8901 19.7417 84.2593 20.1876 84.2682H20.2045C20.644 84.2682 21.0035 83.9168 21.0124 83.4765C21.0164 83.3101 21.4817 66.7708 32.582 59.4754C41.925 54.5684 41.7944 50.5405 40.686 45.6952C42.4389 47.0626 44.5164 48.0246 46.9436 48.1716C47.1609 48.1845 47.3758 48.191 47.5907 48.191C50.0415 48.191 52.3542 47.3502 54.3739 46.0034C53.2653 50.8493 53.1288 54.8742 62.4094 59.7463C73.5622 67.0708 74.042 83.6198 74.0461 83.787C74.0549 84.2264 74.4152 84.5778 74.8539 84.5778H74.8708C75.3167 84.5681 75.6714 84.199 75.6617 83.7531C75.6585 83.5745 75.5551 79.323 73.9984 74.0608C71.9239 67.0473 68.2233 61.6301 63.2293 58.3552C54.1866 53.6036 55.0082 50.2188 56.2522 45.0956L56.3134 44.8426L56.3906 44.5228L56.4261 44.375C58.3516 42.5818 59.8735 40.3419 60.7985 38.0722C62.8463 33.0447 64.1771 26.6878 61.4272 21.1712C62.9641 20.4577 64.4368 19.5946 65.8182 18.5832C66.6478 17.9757 65.8424 16.5733 65.0015 17.1889C63.6261 18.196 62.1542 19.0523 60.6159 19.7539ZM38.9249 27.9433C38.9249 27.4982 39.2868 27.1355 39.7327 27.1355H45.0352C45.4811 27.1355 45.843 27.4982 45.843 27.9433V28.3174C45.7895 28.4328 45.7606 28.5635 45.7606 28.6742C45.7606 28.7884 45.7896 28.9155 45.843 29.0288V31.4016C45.843 31.8475 45.4811 32.2094 45.0352 32.2094H39.7327C39.2868 32.2094 38.9249 31.8475 38.9249 31.4016V27.9433ZM47.4587 29.067L47.4869 29.0547L47.4587 29.0667V29.067ZM50.8315 27.1355C50.3856 27.1355 50.0237 27.4982 50.0237 27.9433V31.4016C50.0237 31.8475 50.3856 32.2094 50.8315 32.2094H56.1332C56.5791 32.2094 56.941 31.8475 56.941 31.4016V27.9433C56.941 27.4982 56.5791 27.1355 56.1332 27.1355H50.8315Z" fill="white"/>
</svg>
