<svg width="38" height="38" viewBox="0 0 38 37" fill="none" xmlns="http://www.w3.org/2000/svg">
<path d="M19 37C28.9411 37 37 28.9411 37 19C37 9.05887 28.9411 1 19 1C9.05887 1 1 9.05887 1 19C1 28.9411 9.05887 37 19 37Z" stroke="#7A62BE" stroke-width="0.8"/>
<path fill-rule="evenodd" clip-rule="evenodd" d="M26.4688 15.2427C25.9705 15.4667 25.435 15.6181 24.8723 15.6863C25.4464 15.3375 25.8871 14.7859 26.0945 14.1282C25.5577 14.4508 24.9625 14.685 24.3296 14.8116C23.8229 14.2642 23.1002 13.9219 22.301 13.9219C20.7659 13.9219 19.5217 15.1831 19.5217 16.7382C19.5217 16.9591 19.5459 17.174 19.5937 17.3804C17.2835 17.2624 15.2359 16.1415 13.8651 14.4375C13.6259 14.8536 13.4887 15.3375 13.4887 15.8536C13.4887 16.8308 13.9794 17.6927 14.7249 18.1976C14.2694 18.183 13.8409 18.0565 13.4663 17.8454C13.4659 17.857 13.4659 17.869 13.4659 17.8806C13.4659 19.2452 14.4239 20.3837 15.6956 20.6424C15.4623 20.7067 15.2168 20.7411 14.9632 20.7411C14.7841 20.7411 14.6102 20.7235 14.4404 20.6909C14.7939 21.8097 15.8205 22.6239 17.0367 22.6466C16.0855 23.4021 14.887 23.8521 13.5848 23.8521C13.3605 23.8521 13.1395 23.8392 12.9219 23.8126C14.1517 24.6118 15.6126 25.0781 17.1819 25.0781C22.2946 25.0781 25.0899 20.7865 25.0899 17.0651C25.0899 16.9428 25.0874 16.8214 25.0819 16.7004C25.625 16.3036 26.0962 15.8073 26.4688 15.2427Z" fill="white"/>
</svg>
