<svg width="275" height="275" viewBox="0 0 275 275" fill="none" xmlns="http://www.w3.org/2000/svg">
<circle cx="137.5" cy="137.5" r="137.5" fill="#6B56A5"/>
<path fill-rule="evenodd" clip-rule="evenodd" d="M218.58 135.716C209.171 135.139 202.746 126.579 199.011 119.501V119.499C192.883 107.889 195.943 94.8759 198.417 89.6196C199.692 86.9066 204.557 77.8202 213.621 74.7516C215.65 74.0628 217.764 73.7234 219.955 73.7234C224.106 73.7234 228.524 74.9496 233.106 77.3636C246.26 86.0703 249.168 99.8313 241.728 118.319C240.214 122.083 237.662 125.874 234.457 128.959C234.096 129.131 233.801 129.398 233.593 129.755C229.356 133.527 224.106 136.042 218.58 135.716ZM189.071 158.076C188.059 158.773 187.074 159.526 186.117 160.319C185.857 149.339 186.318 137.483 193.07 128.723C193.258 129.054 193.444 129.386 193.663 129.695C195.852 132.794 199.207 134.785 202.846 135.145C204.678 143.766 204.361 149.653 189.071 158.076ZM202.281 130.379L202.447 131.064C200.369 130.545 198.425 129.363 197.201 127.674C195.641 125.524 195.138 123.009 195.579 120.532C195.637 120.647 195.686 120.764 195.747 120.877C197.424 124 199.593 127.367 202.281 130.379ZM137.641 127.51C125.65 126.765 117.497 115.802 112.767 106.736C110.701 102.777 109.479 98.696 108.83 94.7069C109.852 93.9994 110.818 93.2265 111.717 92.3739C112.216 93.6007 113.11 94.666 114.544 95.3223C116.437 96.1852 118.611 96.2567 120.657 96.3099C122.767 96.3651 124.868 96.2445 126.958 95.9684C129.246 95.6638 131.598 95.3428 133.467 93.8399C134.98 92.6193 135.978 90.5541 135.719 88.5667C136.164 88.3909 136.615 88.2314 137.078 88.1067C137.34 88.0372 137.601 87.9758 137.869 87.9247C138.009 87.8981 138.823 87.6609 138.206 87.8613C138.65 87.7182 139.263 87.7775 139.724 87.7816C140.191 87.7836 140.666 87.8122 141.129 87.8756C141.283 87.9063 141.519 87.9513 141.578 87.9635C141.838 88.0208 142.104 88.0862 142.363 88.1578C142.625 88.2314 142.882 88.3132 143.136 88.4052C143.174 88.4195 143.293 88.4686 143.411 88.5177C143.557 91.7932 146.117 94.6517 149.107 95.8049C150.946 96.5144 152.98 96.6575 154.927 96.6923C156.92 96.7229 159.022 96.7863 160.949 96.1811C163.973 95.2324 166.455 92.3023 166.235 89.1822C167.313 90.4928 168.537 91.691 169.913 92.7195C170.194 92.9301 170.518 93.0405 170.851 93.0752C170.007 96.9233 168.759 100.957 167.074 105.196C162.412 116.902 150.784 128.35 137.641 127.51ZM112.465 68.7864C112.703 68.2648 113.05 67.5415 113.487 66.7021C114.577 71.1722 115.267 75.742 113.996 80.2834C113.063 83.6186 111.26 86.6135 108.848 88.9362C108.613 80.3506 110.659 72.796 112.465 68.7864ZM130.962 89.0279C131.004 89.1302 131.031 89.3155 131.049 89.4004C131.049 89.4139 131.051 89.4197 131.056 89.4235C131.058 89.4313 131.06 89.4486 131.064 89.4525C130.856 89.8617 130.807 89.879 130.335 90.128C129.422 90.6048 128.052 90.7592 126.919 90.9059C123.866 91.2938 120.533 91.4463 117.478 91.0217C117.756 91.0603 117.106 90.9425 117.021 90.9232C116.934 90.9039 116.313 90.7321 116.558 90.8267C116.477 90.792 115.94 90.4909 116.158 90.6434C115.9 90.4619 116.021 90.5835 115.94 90.4117C115.786 90.0836 115.848 89.6899 116.004 89.2595C115.925 89.4853 116.153 88.97 116.207 88.8831C116.276 88.7692 116.353 88.6592 116.436 88.5531C116.459 88.5203 116.454 88.526 116.467 88.5087C116.479 88.499 116.496 88.4874 116.558 88.4218C117.253 87.7115 118.053 87.2695 118.939 87.0148C120.271 86.6268 121.641 86.5747 123.03 86.6017C124.383 86.6268 126.135 86.6963 127.137 86.8565C127.687 86.9472 128.544 87.1422 128.883 87.2792C128.895 87.285 129.37 87.5262 129.541 87.6401C129.24 87.4413 129.974 88.0821 129.779 87.8409C130.082 88.2211 130.464 88.5299 130.888 88.7384C130.908 88.8349 130.923 88.9333 130.962 89.0279ZM161.457 90.757C161.459 90.6269 161.356 90.9212 161.402 90.8772C161.342 90.9753 161.249 91.1335 161.235 91.1735C161.099 91.3357 160.945 91.4898 160.786 91.628C161.018 91.4278 160.476 91.8242 160.361 91.8883C160.001 92.0845 160.09 92.0344 159.655 92.1526C158.431 92.4969 157.181 92.4469 155.816 92.4409C154.438 92.4329 153.124 92.4289 151.932 92.1686C150.539 91.8663 149.806 91.5099 148.999 90.6129C149.21 90.8471 148.743 90.2084 148.664 90.0903C148.664 90.0883 148.641 90.0443 148.617 90.0002C149.09 89.5077 149.313 88.8429 149.309 88.1262C149.311 88.1182 149.313 88.0981 149.317 88.0841C149.345 88.0721 149.404 88.0341 149.43 88.008C149.897 87.7958 150.29 87.8018 150.923 87.7818C152.43 87.7337 153.937 87.7958 155.436 87.958C156.603 88.0841 157.824 88.2863 158.969 88.6547C159.085 88.6928 159.712 88.925 159.584 88.873C159.459 88.8169 160.051 89.1072 160.159 89.1653C160.369 89.2814 160.565 89.4096 160.765 89.5377C160.771 89.5417 160.8 89.5637 160.832 89.5878C160.883 89.6418 161.101 89.848 161.131 89.8721C161.198 89.9261 161.22 89.9381 161.239 89.9462C161.247 89.9662 161.249 89.9822 161.283 90.0443C161.326 90.1284 161.374 90.2104 161.421 90.2925C161.423 90.3025 161.421 90.3005 161.425 90.3146C161.445 90.4027 161.469 90.4888 161.489 90.5768C161.481 90.5949 161.481 90.6109 161.469 90.6289C161.469 90.6289 161.463 90.695 161.457 90.757ZM125.217 53.9132C125.265 54.7707 125.733 55.6221 126.451 56.0518C127.676 56.7865 129.12 56.2872 129.87 55.133C131.257 53.0087 133.013 51.1914 134.975 49.6565C136.598 49.3311 138.254 49.1489 139.95 49.1489C140.044 49.1489 140.139 49.1592 140.233 49.1592C139.726 49.5275 139.21 49.8734 138.724 50.2745C137.674 51.1443 137.84 52.9841 138.724 53.8907C139.764 54.9529 141.205 54.7605 142.259 53.8907C144.053 52.4049 146.09 51.2405 148.242 50.3646C151.001 51.1484 153.828 52.3047 156.706 53.8396C161.205 56.8459 164.73 60.3393 167.341 64.2768C167.297 64.3198 167.234 64.3341 167.192 64.3812C163.498 68.7669 161.675 74.4971 162.445 80.2642C162.686 82.0774 163.196 83.7985 163.898 85.4255C161.715 83.8661 158.835 83.3299 156.236 83.0127C153.95 82.7323 151.475 82.5645 149.203 83.0454C147.89 83.3238 146.818 84.0196 146.072 84.963C142.129 83.2685 137.526 83.3995 133.663 85.2966C131.263 82.7855 127.836 82.4663 124.441 82.3169C122.595 82.235 120.65 82.3312 118.828 82.7958C120.834 76.253 119.408 69.5486 117.62 63.1389C117.493 62.6867 117.279 62.3367 117.021 62.0604C119.074 59.2833 121.794 56.3138 125.217 53.9132ZM146.527 46.2636C145.66 46.0763 144.791 45.8844 143.936 45.7697C145.846 45.2525 147.813 44.9974 149.787 45.0138C148.68 45.3602 147.596 45.7791 146.527 46.2636ZM172.803 88.9362C166.66 84.063 165.569 75.188 170.188 69.0426C172.922 74.8427 173.778 81.4897 172.803 88.9362ZM54.9348 128.695C45.4799 128.119 39.016 119.564 35.2608 112.489C34.1785 110.451 33.3602 108.249 32.7661 105.961C36.6732 103.581 40.5364 101.128 44.3516 98.5963C48.2648 95.9963 52.1279 93.3177 55.9351 90.5625C59.5102 87.9746 63.1173 85.3806 66.5003 82.5348C68.4089 80.9317 70.1754 79.1816 71.6779 77.234C73.7245 84.714 77.2176 91.7367 81.915 97.9176C81.3728 102.062 80.1465 106.523 78.2099 111.307C74.6068 120.206 65.2219 129.295 54.9348 128.695ZM33.6525 85.5694C34.0418 84.281 34.652 82.6887 35.2079 81.5118C36.4945 78.7851 41.4037 69.649 50.5479 66.5658C56.4707 64.5643 63.1401 65.484 70.2029 69.1932C70.4779 69.3734 70.7208 69.5699 70.9857 69.7543C70.9897 69.8272 70.9777 69.9001 70.9897 69.9731C71.1001 70.6517 71.2506 71.3202 71.3831 71.9948C69.8597 74.604 67.6861 76.812 65.4181 78.7709C62.1948 81.5543 58.7045 84.046 55.2664 86.5478C47.9286 91.8837 40.3881 96.9339 32.667 101.68C29.9916 103.325 27.2901 104.919 24.5746 106.489C27.1075 102.557 29.4336 98.4917 31.8883 94.503C32.655 93.2551 31.3925 91.9161 30.116 92.1774C29.5761 92.2868 29.0342 92.3962 28.4943 92.5076C30.0237 90.3177 31.5511 88.1259 33.0885 85.9381C33.1909 85.7922 33.237 85.622 33.2691 85.4519L33.6525 85.5694ZM83.0852 92.4468C79.2096 86.7691 76.4384 80.394 74.8937 73.7234C80.322 78.6998 83.0472 84.9606 83.0852 92.4468ZM250.578 158.283C233.298 149.189 234.781 143.076 237.236 132.946L237.542 131.674C241.29 128.149 244.25 123.773 246.056 119.338C256.428 93.845 246.203 80.374 235.628 73.4618C227.378 69.1478 219.641 68.1525 212.631 70.5003C201.967 74.0715 196.372 84.3771 194.909 87.4497C191.679 94.2447 190.144 105.001 193.136 114.923C192.908 115.288 192.681 115.651 192.451 116.017C192.304 116.245 192.223 116.495 192.213 116.766C192.171 116.958 192.207 117.151 192.239 117.345C192.165 117.472 192.074 117.591 192.022 117.733C191.218 119.891 191.057 122.291 191.466 124.584C191.421 124.625 191.371 124.637 191.327 124.685C182.436 134.331 181.609 147.59 181.878 160.11C180.9 159.369 179.911 158.651 178.889 157.98C156.333 146.108 158.383 137.65 161.486 124.847C161.708 123.928 161.936 122.992 162.157 122.037C162.224 121.758 162.224 121.482 162.175 121.217C166.27 117.071 169.531 112.119 171.576 107.09C178.655 89.6905 182.208 65.7502 158.78 50.422C157.645 49.8285 156.521 49.3036 155.402 48.813C157.502 48.6495 159.618 48.7282 161.674 49.128C163.008 49.3884 164.39 48.7484 164.769 47.3676C165.109 46.1301 164.354 44.5252 163.012 44.2628C158.911 43.4654 154.772 43.5784 150.816 44.4768C152.638 43.3443 152.202 39.8236 149.492 39.7893C142.57 39.7045 135.872 42.2703 130.672 46.6913C130.598 46.7176 130.519 46.7277 130.445 46.7539C117.312 51.1527 110.406 63.8728 108.603 67.668C105.58 74.023 103.75 83.1861 104.643 92.5813C104.242 93.4393 104.427 94.4446 104.961 95.1895C105.668 99.9235 107.097 104.655 109.447 109.06C111.462 112.837 114.06 116.915 117.278 120.561C117.25 120.789 117.241 121.023 117.298 121.26C117.522 122.216 117.747 123.153 117.971 124.072C121.072 136.876 123.124 145.335 100.397 157.306C98.9238 158.275 97.497 159.327 96.1146 160.449C93.4425 157.411 90.4581 154.76 87.0666 152.54C69.7846 143.445 71.2658 137.329 73.7223 127.203L74.2462 125.01L73.5328 124.843C77.3918 121.278 80.4448 116.812 82.2887 112.28C92.6848 86.731 82.4378 73.2297 71.8401 66.3014C63.5739 61.9813 55.8176 60.978 48.7928 63.3338C38.1024 66.913 32.4943 77.2409 31.0312 80.3215C30.3844 81.6781 29.7033 83.4425 29.2519 84.9242L29.6912 85.0595C27.4584 88.2168 25.2417 91.3882 23.0089 94.5455C22.1464 95.7628 23.5631 97.1114 24.7863 96.863L26.7591 96.4654C24.0145 101.01 21.3222 105.586 18.1786 109.878C17.965 110.171 17.9388 110.532 18.0013 110.881C17.7655 112.02 18.9947 113.386 20.3348 112.646C23.2991 111.008 26.2312 109.315 29.1491 107.595C29.802 109.793 30.6564 111.909 31.7184 113.897C33.4172 117.085 35.6359 120.529 38.3966 123.575C38.3463 123.843 38.3442 124.122 38.4087 124.407L38.9347 126.601C41.3891 136.727 42.8703 142.842 25.4211 152.035C2.138 167.353 1.19894 200.404 1.17072 201.805C1.14856 202.92 2.03119 203.842 3.14356 203.862C3.15766 203.864 3.17177 203.864 3.18588 203.864C4.27809 203.864 5.17685 202.988 5.20103 201.89C5.20707 201.567 6.14412 169.548 27.4644 155.511C45.9293 145.793 45.5645 137.44 43.4325 128.099C46.689 130.41 50.4775 132.007 54.8463 132.27C55.2776 132.296 55.7068 132.31 56.134 132.31C60.9119 132.31 65.4118 130.683 69.3635 128.093C67.1146 137.684 66.3166 146.179 85.0232 156.014C87.9613 157.948 90.6576 160.346 93.0879 163.112C84.4227 171.258 77.7888 182.603 73.7001 196.453C69.8169 209.604 69.5569 220.232 69.5489 220.676C69.5267 221.793 70.4114 222.715 71.5237 222.737C71.5378 222.739 71.5519 222.739 71.566 222.739C72.6603 222.739 73.559 221.861 73.5812 220.759C73.5892 220.343 74.75 179.012 102.442 160.782C126.273 148.24 125.393 137.997 122.465 125.519C126.767 128.923 131.873 131.335 137.865 131.698C138.393 131.731 138.916 131.747 139.438 131.747C145.907 131.747 151.973 129.326 157.168 125.549C154.107 138.366 152.704 148.761 176.846 161.455C204.667 179.761 205.866 221.118 205.874 221.532C205.898 222.635 206.797 223.511 207.889 223.511H207.933C209.046 223.486 209.93 222.566 209.906 221.45C209.898 221.005 209.64 210.379 205.757 197.229C201.763 183.707 195.347 172.572 186.905 164.426C188.247 163.247 189.636 162.147 190.978 161.255C208.631 151.963 209.072 143.924 207.214 135.072C210.481 137.401 214.283 139.016 218.674 139.283C219.105 139.309 219.533 139.323 219.96 139.323C224.458 139.323 228.714 137.886 232.494 135.552C230.604 144.453 230.95 152.516 248.535 161.759C270.026 175.899 270.961 207.916 270.969 208.237C270.994 209.337 271.89 210.215 272.983 210.215C272.997 210.215 273.011 210.215 273.027 210.213C274.137 210.191 275.022 209.268 275 208.154C274.969 206.755 274.032 173.704 250.578 158.283Z" fill="white"/>
<mask id="mask0" mask-type="alpha" maskUnits="userSpaceOnUse" x="1" y="39" width="275" height="185">
<path fill-rule="evenodd" clip-rule="evenodd" d="M218.58 135.716C209.171 135.139 202.746 126.579 199.011 119.501V119.499C192.883 107.889 195.943 94.8759 198.417 89.6196C199.692 86.9066 204.557 77.8202 213.621 74.7516C215.65 74.0628 217.764 73.7234 219.955 73.7234C224.106 73.7234 228.524 74.9496 233.106 77.3636C246.26 86.0703 249.168 99.8313 241.728 118.319C240.214 122.083 237.662 125.874 234.457 128.959C234.096 129.131 233.801 129.398 233.593 129.755C229.356 133.527 224.106 136.042 218.58 135.716ZM189.071 158.076C188.059 158.773 187.074 159.526 186.117 160.319C185.857 149.339 186.318 137.483 193.07 128.723C193.258 129.054 193.444 129.386 193.663 129.695C195.852 132.794 199.207 134.785 202.846 135.145C204.678 143.766 204.361 149.653 189.071 158.076ZM202.281 130.379L202.447 131.064C200.369 130.545 198.425 129.363 197.201 127.674C195.641 125.524 195.138 123.009 195.579 120.532C195.637 120.647 195.686 120.764 195.747 120.877C197.424 124 199.593 127.367 202.281 130.379ZM137.641 127.51C125.65 126.765 117.497 115.802 112.767 106.736C110.701 102.777 109.479 98.696 108.83 94.7069C109.852 93.9994 110.818 93.2265 111.717 92.3739C112.216 93.6007 113.11 94.666 114.544 95.3223C116.437 96.1852 118.611 96.2567 120.657 96.3099C122.767 96.3651 124.868 96.2445 126.958 95.9684C129.246 95.6638 131.598 95.3428 133.467 93.8399C134.98 92.6193 135.978 90.5541 135.719 88.5667C136.164 88.3909 136.615 88.2314 137.078 88.1067C137.34 88.0372 137.601 87.9758 137.869 87.9247C138.009 87.8981 138.823 87.6609 138.206 87.8613C138.65 87.7182 139.263 87.7775 139.724 87.7816C140.191 87.7836 140.666 87.8122 141.129 87.8756C141.283 87.9063 141.519 87.9513 141.578 87.9635C141.838 88.0208 142.104 88.0862 142.363 88.1578C142.625 88.2314 142.882 88.3132 143.136 88.4052C143.174 88.4195 143.293 88.4686 143.411 88.5177C143.557 91.7932 146.117 94.6517 149.107 95.8049C150.946 96.5144 152.98 96.6575 154.927 96.6923C156.92 96.7229 159.022 96.7863 160.949 96.1811C163.973 95.2324 166.455 92.3023 166.235 89.1822C167.313 90.4928 168.537 91.691 169.913 92.7195C170.194 92.9301 170.518 93.0405 170.851 93.0752C170.007 96.9233 168.759 100.957 167.074 105.196C162.412 116.902 150.784 128.35 137.641 127.51ZM112.465 68.7864C112.703 68.2648 113.05 67.5415 113.487 66.7021C114.577 71.1722 115.267 75.742 113.996 80.2834C113.063 83.6186 111.26 86.6135 108.848 88.9362C108.613 80.3506 110.659 72.796 112.465 68.7864ZM130.962 89.0279C131.004 89.1302 131.031 89.3155 131.049 89.4004C131.049 89.4139 131.051 89.4197 131.056 89.4235C131.058 89.4313 131.06 89.4486 131.064 89.4525C130.856 89.8617 130.807 89.879 130.335 90.128C129.422 90.6048 128.052 90.7592 126.919 90.9059C123.866 91.2938 120.533 91.4463 117.478 91.0217C117.756 91.0603 117.106 90.9425 117.021 90.9232C116.934 90.9039 116.313 90.7321 116.558 90.8267C116.477 90.792 115.94 90.4909 116.158 90.6434C115.9 90.4619 116.021 90.5835 115.94 90.4117C115.786 90.0836 115.848 89.6899 116.004 89.2595C115.925 89.4853 116.153 88.97 116.207 88.8831C116.276 88.7692 116.353 88.6592 116.436 88.5531C116.459 88.5203 116.454 88.526 116.467 88.5087C116.479 88.499 116.496 88.4874 116.558 88.4218C117.253 87.7115 118.053 87.2695 118.939 87.0148C120.271 86.6268 121.641 86.5747 123.03 86.6017C124.383 86.6268 126.135 86.6963 127.137 86.8565C127.687 86.9472 128.544 87.1422 128.883 87.2792C128.895 87.285 129.37 87.5262 129.541 87.6401C129.24 87.4413 129.974 88.0821 129.779 87.8409C130.082 88.2211 130.464 88.5299 130.888 88.7384C130.908 88.8349 130.923 88.9333 130.962 89.0279ZM161.457 90.757C161.459 90.6269 161.356 90.9212 161.402 90.8772C161.342 90.9753 161.249 91.1335 161.235 91.1735C161.099 91.3357 160.945 91.4898 160.786 91.628C161.018 91.4278 160.476 91.8242 160.361 91.8883C160.001 92.0845 160.09 92.0344 159.655 92.1526C158.431 92.4969 157.181 92.4469 155.816 92.4409C154.438 92.4329 153.124 92.4289 151.932 92.1686C150.539 91.8663 149.806 91.5099 148.999 90.6129C149.21 90.8471 148.743 90.2084 148.664 90.0903C148.664 90.0883 148.641 90.0443 148.617 90.0002C149.09 89.5077 149.313 88.8429 149.309 88.1262C149.311 88.1182 149.313 88.0981 149.317 88.0841C149.345 88.0721 149.404 88.0341 149.43 88.008C149.897 87.7958 150.29 87.8018 150.923 87.7818C152.43 87.7337 153.937 87.7958 155.436 87.958C156.603 88.0841 157.824 88.2863 158.969 88.6547C159.085 88.6928 159.712 88.925 159.584 88.873C159.459 88.8169 160.051 89.1072 160.159 89.1653C160.369 89.2814 160.565 89.4096 160.765 89.5377C160.771 89.5417 160.8 89.5637 160.832 89.5878C160.883 89.6418 161.101 89.848 161.131 89.8721C161.198 89.9261 161.22 89.9381 161.239 89.9462C161.247 89.9662 161.249 89.9822 161.283 90.0443C161.326 90.1284 161.374 90.2104 161.421 90.2925C161.423 90.3025 161.421 90.3005 161.425 90.3146C161.445 90.4027 161.469 90.4888 161.489 90.5768C161.481 90.5949 161.481 90.6109 161.469 90.6289C161.469 90.6289 161.463 90.695 161.457 90.757ZM125.217 53.9132C125.265 54.7707 125.733 55.6221 126.451 56.0518C127.676 56.7865 129.12 56.2872 129.87 55.133C131.257 53.0087 133.013 51.1914 134.975 49.6565C136.598 49.3311 138.254 49.1489 139.95 49.1489C140.044 49.1489 140.139 49.1592 140.233 49.1592C139.726 49.5275 139.21 49.8734 138.724 50.2745C137.674 51.1443 137.84 52.9841 138.724 53.8907C139.764 54.9529 141.205 54.7605 142.259 53.8907C144.053 52.4049 146.09 51.2405 148.242 50.3646C151.001 51.1484 153.828 52.3047 156.706 53.8396C161.205 56.8459 164.73 60.3393 167.341 64.2768C167.297 64.3198 167.234 64.3341 167.192 64.3812C163.498 68.7669 161.675 74.4971 162.445 80.2642C162.686 82.0774 163.196 83.7985 163.898 85.4255C161.715 83.8661 158.835 83.3299 156.236 83.0127C153.95 82.7323 151.475 82.5645 149.203 83.0454C147.89 83.3238 146.818 84.0196 146.072 84.963C142.129 83.2685 137.526 83.3995 133.663 85.2966C131.263 82.7855 127.836 82.4663 124.441 82.3169C122.595 82.235 120.65 82.3312 118.828 82.7958C120.834 76.253 119.408 69.5486 117.62 63.1389C117.493 62.6867 117.279 62.3367 117.021 62.0604C119.074 59.2833 121.794 56.3138 125.217 53.9132ZM146.527 46.2636C145.66 46.0763 144.791 45.8844 143.936 45.7697C145.846 45.2525 147.813 44.9974 149.787 45.0138C148.68 45.3602 147.596 45.7791 146.527 46.2636ZM172.803 88.9362C166.66 84.063 165.569 75.188 170.188 69.0426C172.922 74.8427 173.778 81.4897 172.803 88.9362ZM54.9348 128.695C45.4799 128.119 39.016 119.564 35.2608 112.489C34.1785 110.451 33.3602 108.249 32.7661 105.961C36.6732 103.581 40.5364 101.128 44.3516 98.5963C48.2648 95.9963 52.1279 93.3177 55.9351 90.5625C59.5102 87.9746 63.1173 85.3806 66.5003 82.5348C68.4089 80.9317 70.1754 79.1816 71.6779 77.234C73.7245 84.714 77.2176 91.7367 81.915 97.9176C81.3728 102.062 80.1465 106.523 78.2099 111.307C74.6068 120.206 65.2219 129.295 54.9348 128.695ZM33.6525 85.5694C34.0418 84.281 34.652 82.6887 35.2079 81.5118C36.4945 78.7851 41.4037 69.649 50.5479 66.5658C56.4707 64.5643 63.1401 65.484 70.2029 69.1932C70.4779 69.3734 70.7208 69.5699 70.9857 69.7543C70.9897 69.8272 70.9777 69.9001 70.9897 69.9731C71.1001 70.6517 71.2506 71.3202 71.3831 71.9948C69.8597 74.604 67.6861 76.812 65.4181 78.7709C62.1948 81.5543 58.7045 84.046 55.2664 86.5478C47.9286 91.8837 40.3881 96.9339 32.667 101.68C29.9916 103.325 27.2901 104.919 24.5746 106.489C27.1075 102.557 29.4336 98.4917 31.8883 94.503C32.655 93.2551 31.3925 91.9161 30.116 92.1774C29.5761 92.2868 29.0342 92.3962 28.4943 92.5076C30.0237 90.3177 31.5511 88.1259 33.0885 85.9381C33.1909 85.7922 33.237 85.622 33.2691 85.4519L33.6525 85.5694ZM83.0852 92.4468C79.2096 86.7691 76.4384 80.394 74.8937 73.7234C80.322 78.6998 83.0472 84.9606 83.0852 92.4468ZM250.578 158.283C233.298 149.189 234.781 143.076 237.236 132.946L237.542 131.674C241.29 128.149 244.25 123.773 246.056 119.338C256.428 93.845 246.203 80.374 235.628 73.4618C227.378 69.1478 219.641 68.1525 212.631 70.5003C201.967 74.0715 196.372 84.3771 194.909 87.4497C191.679 94.2447 190.144 105.001 193.136 114.923C192.908 115.288 192.681 115.651 192.451 116.017C192.304 116.245 192.223 116.495 192.213 116.766C192.171 116.958 192.207 117.151 192.239 117.345C192.165 117.472 192.074 117.591 192.022 117.733C191.218 119.891 191.057 122.291 191.466 124.584C191.421 124.625 191.371 124.637 191.327 124.685C182.436 134.331 181.609 147.59 181.878 160.11C180.9 159.369 179.911 158.651 178.889 157.98C156.333 146.108 158.383 137.65 161.486 124.847C161.708 123.928 161.936 122.992 162.157 122.037C162.224 121.758 162.224 121.482 162.175 121.217C166.27 117.071 169.531 112.119 171.576 107.09C178.655 89.6905 182.208 65.7502 158.78 50.422C157.645 49.8285 156.521 49.3036 155.402 48.813C157.502 48.6495 159.618 48.7282 161.674 49.128C163.008 49.3884 164.39 48.7484 164.769 47.3676C165.109 46.1301 164.354 44.5252 163.012 44.2628C158.911 43.4654 154.772 43.5784 150.816 44.4768C152.638 43.3443 152.202 39.8236 149.492 39.7893C142.57 39.7045 135.872 42.2703 130.672 46.6913C130.598 46.7176 130.519 46.7277 130.445 46.7539C117.312 51.1527 110.406 63.8728 108.603 67.668C105.58 74.023 103.75 83.1861 104.643 92.5813C104.242 93.4393 104.427 94.4446 104.961 95.1895C105.668 99.9235 107.097 104.655 109.447 109.06C111.462 112.837 114.06 116.915 117.278 120.561C117.25 120.789 117.241 121.023 117.298 121.26C117.522 122.216 117.747 123.153 117.971 124.072C121.072 136.876 123.124 145.335 100.397 157.306C98.9238 158.275 97.497 159.327 96.1146 160.449C93.4425 157.411 90.4581 154.76 87.0666 152.54C69.7846 143.445 71.2658 137.329 73.7223 127.203L74.2462 125.01L73.5328 124.843C77.3918 121.278 80.4448 116.812 82.2887 112.28C92.6848 86.731 82.4378 73.2297 71.8401 66.3014C63.5739 61.9813 55.8176 60.978 48.7928 63.3338C38.1024 66.913 32.4943 77.2409 31.0312 80.3215C30.3844 81.6781 29.7033 83.4425 29.2519 84.9242L29.6912 85.0595C27.4584 88.2168 25.2417 91.3882 23.0089 94.5455C22.1464 95.7628 23.5631 97.1114 24.7863 96.863L26.7591 96.4654C24.0145 101.01 21.3222 105.586 18.1786 109.878C17.965 110.171 17.9388 110.532 18.0013 110.881C17.7655 112.02 18.9947 113.386 20.3348 112.646C23.2991 111.008 26.2312 109.315 29.1491 107.595C29.802 109.793 30.6564 111.909 31.7184 113.897C33.4172 117.085 35.6359 120.529 38.3966 123.575C38.3463 123.843 38.3442 124.122 38.4087 124.407L38.9347 126.601C41.3891 136.727 42.8703 142.842 25.4211 152.035C2.138 167.353 1.19894 200.404 1.17072 201.805C1.14856 202.92 2.03119 203.842 3.14356 203.862C3.15766 203.864 3.17177 203.864 3.18588 203.864C4.27809 203.864 5.17685 202.988 5.20103 201.89C5.20707 201.567 6.14412 169.548 27.4644 155.511C45.9293 145.793 45.5645 137.44 43.4325 128.099C46.689 130.41 50.4775 132.007 54.8463 132.27C55.2776 132.296 55.7068 132.31 56.134 132.31C60.9119 132.31 65.4118 130.683 69.3635 128.093C67.1146 137.684 66.3166 146.179 85.0232 156.014C87.9613 157.948 90.6576 160.346 93.0879 163.112C84.4227 171.258 77.7888 182.603 73.7001 196.453C69.8169 209.604 69.5569 220.232 69.5489 220.676C69.5267 221.793 70.4114 222.715 71.5237 222.737C71.5378 222.739 71.5519 222.739 71.566 222.739C72.6603 222.739 73.559 221.861 73.5812 220.759C73.5892 220.343 74.75 179.012 102.442 160.782C126.273 148.24 125.393 137.997 122.465 125.519C126.767 128.923 131.873 131.335 137.865 131.698C138.393 131.731 138.916 131.747 139.438 131.747C145.907 131.747 151.973 129.326 157.168 125.549C154.107 138.366 152.704 148.761 176.846 161.455C204.667 179.761 205.866 221.118 205.874 221.532C205.898 222.635 206.797 223.511 207.889 223.511H207.933C209.046 223.486 209.93 222.566 209.906 221.45C209.898 221.005 209.64 210.379 205.757 197.229C201.763 183.707 195.347 172.572 186.905 164.426C188.247 163.247 189.636 162.147 190.978 161.255C208.631 151.963 209.072 143.924 207.214 135.072C210.481 137.401 214.283 139.016 218.674 139.283C219.105 139.309 219.533 139.323 219.96 139.323C224.458 139.323 228.714 137.886 232.494 135.552C230.604 144.453 230.95 152.516 248.535 161.759C270.026 175.899 270.961 207.916 270.969 208.237C270.994 209.337 271.89 210.215 272.983 210.215C272.997 210.215 273.011 210.215 273.027 210.213C274.137 210.191 275.022 209.268 275 208.154C274.969 206.755 274.032 173.704 250.578 158.283Z" fill="white"/>
</mask>
<g mask="url(#mask0)">
</g>
</svg>
