<svg width="38" height="38" viewBox="0 0 37 37" fill="none" xmlns="http://www.w3.org/2000/svg">
<path d="M19 37C28.9411 37 37 28.9411 37 19C37 9.05887 28.9411 1 19 1C9.05887 1 1 9.05887 1 19C1 28.9411 9.05887 37 19 37Z" stroke="#7A62BE" stroke-width="0.8"/>
<path fill-rule="evenodd" clip-rule="evenodd" d="M21.2327 19C21.2327 17.7666 20.233 16.7676 19 16.7676C17.7674 16.7676 16.7676 17.7666 16.7676 19C16.7676 20.2334 17.7674 21.2324 19 21.2324C20.233 21.2324 21.2327 20.2334 21.2327 19ZM24.0422 15.3164C24.0422 15.5013 23.8915 15.6512 23.7074 15.6512H22.7035C22.5194 15.6512 22.3686 15.5005 22.3686 15.3164V14.3117C22.3686 14.1269 22.5201 13.9765 22.7035 13.9765H23.7074C23.8923 13.9765 24.0422 14.1272 24.0422 14.3117V15.3164ZM23.1246 13H14.8754C13.8396 13 13 13.84 13 14.8754V16.9067H16.0379C16.6941 15.979 17.7764 15.3723 19 15.3723C20.224 15.3723 21.3059 15.979 21.9625 16.9067H25V14.8754C25 13.84 24.1604 13 23.1246 13ZM22.6281 19C22.6281 21.004 21.0033 22.6278 19 22.6278C16.9964 22.6278 15.3723 21.004 15.3723 19C15.3723 18.7611 15.3959 18.5282 15.4405 18.3025H13V23.1246C13 24.16 13.8389 25 14.8754 25H23.1246C24.1604 25 25 24.1607 25 23.1246V18.3025H22.5606C22.6045 18.5282 22.6281 18.7611 22.6281 19Z" fill="white"/>
</svg>
