<svg width="102" height="90" viewBox="0 0 102 90" fill="none" xmlns="http://www.w3.org/2000/svg">
<path fill-rule="evenodd" clip-rule="evenodd" d="M50 90C74.8528 90 95 69.8528 95 45C95 20.1472 74.8528 0 50 0C25.1472 0 5 20.1472 5 45C5 69.8528 25.1472 90 50 90Z" fill="#6B56A5"/>
<path fill-rule="evenodd" clip-rule="evenodd" d="M5.02138 10.4347C3.04367 10.4347 1.43468 12.0437 1.43468 14.0214V72.8605C1.43468 74.8382 3.04367 76.4472 5.02138 76.4472H8.69189C8.75311 75.3024 9.02417 71.9693 10.1954 68.0108C12.0906 61.6036 15.4714 56.6553 19.972 53.6999C22.2042 52.5257 23.7851 51.4436 24.8816 50.3985C24.5492 49.8657 24.3375 49.2968 24.2484 48.6972C24.6723 48.5376 25.0796 48.3051 25.4544 47.9946L24.2557 47.2974C24.1836 47.7797 24.1815 48.2471 24.2484 48.6972C22.1692 49.4797 19.6903 48.5078 18.6863 46.3842C17.7245 44.3489 18.1944 42.1634 19.4836 40.5057C20.1374 40.6959 20.8391 40.6954 21.4789 40.4288C21.2952 39.992 21.1109 39.5544 20.9265 39.1175C20.377 39.5138 19.8897 39.9835 19.4836 40.5057C18.8868 40.3321 18.3299 39.9996 17.8965 39.5659C16.8893 38.5594 16.5386 37.0545 16.5579 35.6714C16.5766 34.3006 16.9467 32.9226 17.8161 31.8437C18.7009 30.7452 20.0617 30.29 21.3725 29.919C21.0423 26.4047 21.7294 22.9791 22.8615 20.6015C23.5387 19.179 26.1311 14.413 31.0585 12.766C34.2937 11.6864 37.8697 12.1491 41.6888 14.1425C46.7423 17.4427 48.4492 21.8108 48.4821 26.1675C50.8845 26.0353 53.2964 27.4415 54.2271 29.7128C55.0675 31.7641 54.5137 34.1818 53.054 35.7893C52.5684 35.5943 52.0513 35.4737 51.5192 35.4371L51.8807 36.7735C52.3176 36.5005 52.7109 36.1673 53.054 35.7893C53.8248 36.099 54.5165 36.5964 55.0635 37.2441C56.6661 39.14 56.8992 41.8459 55.2414 43.7841C54.0509 45.1753 52.1579 45.8525 50.3802 45.5952C50.284 45.0965 50.132 44.6172 49.9324 44.1822L48.9511 45.1636C49.4072 45.3818 49.8893 45.5242 50.3802 45.5952C50.7246 47.38 50.354 49.4133 48.8901 50.5486C47.9669 51.2631 46.685 51.3255 45.5631 51.2552C45.1412 51.2291 44.7259 51.1758 44.3171 51.0967C45.3726 52.0035 46.8036 52.9419 48.7168 53.947C53.2776 56.9376 56.6577 61.8865 58.5537 68.2938C59.64 71.9657 59.9515 75.0988 60.0397 76.4472H96.1444C98.1221 76.4472 99.7311 74.8382 99.7311 72.8605V14.0214C99.7311 12.0437 98.1221 10.4347 96.1444 10.4347H5.02138ZM44.6781 76.4472H10.1308C10.2873 73.8778 11.5267 60.9609 20.6994 54.9344C29.262 50.4345 29.1057 46.7464 28.0825 42.2996C29.6921 43.5672 31.6033 44.461 33.8397 44.5965C34.0376 44.6087 34.2342 44.6144 34.4307 44.6144C36.6848 44.6144 38.8111 43.8347 40.6646 42.5883C39.6422 47.0326 39.485 50.7165 47.9894 55.1816C56.9042 61.0362 58.3682 73.3252 58.598 76.4472H56.4869V76.4471H44.6781V76.4472ZM44.6781 77.8819H5.02138C2.25245 77.8819 0 75.6294 0 72.8605V14.0214C0 11.2524 2.25245 9 5.02138 9H96.1444C98.9133 9 101.166 11.2524 101.166 14.0214V72.8605C101.166 75.6294 98.9133 77.8819 96.1444 77.8819H56.4869V80.7512H73.9664C75.9441 80.7512 77.5531 82.3602 77.5531 84.3379C77.5531 86.3156 75.9441 87.9246 73.9664 87.9246H27.1994C25.2217 87.9246 23.6127 86.3156 23.6127 84.3379C23.6127 82.3602 25.2217 80.7512 27.1994 80.7512H44.6781V77.8819ZM55.0523 77.8819V80.7512H46.1128V77.8819H55.0523ZM27.1994 82.1858H44.6781H56.4869H73.9664C75.1529 82.1858 76.1184 83.1514 76.1184 84.3379C76.1184 85.5243 75.1529 86.4899 73.9664 86.4899H27.1994C26.0129 86.4899 25.0474 85.5243 25.0474 84.3379C25.0474 83.1514 26.0129 82.1858 27.1994 82.1858ZM34.5893 13.6339C33.5262 13.6339 32.499 13.7975 31.5133 14.1268C27.1225 15.5944 24.7725 19.9257 24.157 21.2184C22.9655 23.7212 21.4914 29.914 24.4439 35.4382C26.2466 38.8104 29.3541 42.8878 33.9265 43.1647C38.9385 43.4574 43.3702 39.2186 45.1457 34.8629C46.2524 32.1474 46.8824 29.6458 47.0371 27.3627C46.8973 27.1089 46.8924 26.7779 47.0722 26.5518C47.1586 21.8325 45.1182 18.0938 40.965 15.3792C38.7398 14.22 36.6007 13.6339 34.5893 13.6339ZM46.4849 35.3787C47.4469 33.0183 48.2358 30.3371 48.4344 27.6044C50.2532 27.4407 52.1799 28.4916 52.8893 30.2063C53.6697 32.0936 52.8756 34.4601 51.1569 35.5354C50.5328 35.9256 50.8169 36.8238 51.5192 36.8718C53.7451 37.0246 55.4975 39.5418 54.8311 41.6773C54.2063 43.6794 51.5643 44.8293 49.6749 43.9247C49.0063 43.6048 48.3894 44.2446 48.6936 44.906C49.04 45.6621 49.1605 46.5365 49.0343 47.3586C48.9174 48.1262 48.5946 49.0379 47.9195 49.4862C47.2309 49.9432 46.185 49.8729 45.401 49.8091C44.4498 49.733 43.5022 49.4733 42.6378 49.0716C42.5868 49.0479 42.5344 49.029 42.4813 49.0151C41.1194 46.7754 41.6567 44.5638 42.3282 41.7996L42.3685 41.6329L42.3696 41.6282C42.4088 41.4659 42.4484 41.3022 42.4879 41.1369C44.2483 39.4992 45.6397 37.4523 46.4849 35.3787ZM25.8797 49.289C25.649 48.7887 25.5589 48.2128 25.6387 47.6783C25.7456 46.9631 25.0175 46.5018 24.4401 46.9803C23.7356 47.5642 22.7321 47.6775 21.8727 47.4293C20.9595 47.1661 20.2594 46.4523 19.8921 45.5879C19.0744 43.6647 20.0334 41.522 21.6503 40.3564C21.9401 40.1476 22.0965 39.8076 21.9437 39.4604C21.8153 39.1677 21.4323 38.9059 21.098 39.0451C20.2429 39.4016 19.3125 39.0738 18.7401 38.365C18.0823 37.5501 17.9496 36.4081 18.0012 35.3981C18.0507 34.4311 18.3333 33.3802 19.0055 32.6543C19.6801 31.9256 20.6336 31.6198 21.5652 31.3558C21.8506 32.9826 22.3698 34.6004 23.1793 36.1147C23.9479 37.5531 24.9407 39.1092 26.1755 40.4919C26.2452 40.7918 26.3165 41.0869 26.3867 41.3772L26.4202 41.5159C27.1464 44.5052 27.7153 46.8484 25.8797 49.289ZM89.9028 23.7527H62.344V22.3181H89.9028V23.7527ZM62.344 28.7741H85.4897V27.3394H62.344V28.7741ZM88.3526 33.7955H62.3447V32.3608H88.3526V33.7955ZM63.0614 59.0272H91.7184V42.3591H88.7735L72.823 57.5585L67.2177 48.5666L65.1353 51.6584L63.0614 49.5842V59.0272ZM61.6267 46.1206L60.5916 45.0854L59.5773 46.0997L61.6267 48.1493V60.4619H93.1531V40.9244H90.2791L93.7378 37.6286L92.7478 36.5899L88.1992 40.9244H61.6267V46.1206ZM63.0614 47.5555V42.3591H86.6936L73.1085 55.3046L67.2636 45.929L64.9179 49.4124L63.0614 47.5555Z" fill="white"/>
</svg>
