<svg width="38" height="38" viewBox="0 0 37 37" fill="none" xmlns="http://www.w3.org/2000/svg">
<path d="M18 37C27.9411 37 36 28.9411 36 19C36 9.05887 27.9411 1 18 1C8.05887 1 0 9.05887 0 19C0 28.9411 8.05887 37 18 37Z" stroke="#7A62BE" stroke-width="0.8"/>
<path fill-rule="evenodd" clip-rule="evenodd" d="M19.8378 24.0781H17.6014V18.1016H16.1094V16.0419L17.6014 16.0411L17.5991 14.8279C17.5991 13.1474 18.0538 12.125 20.0303 12.125H21.6759V14.185H20.6476C19.8777 14.185 19.8408 14.473 19.8408 15.0102L19.8378 16.0411H21.6875L21.4697 18.1008L19.8393 18.1016L19.8378 24.0781Z" fill="white"/>
</svg>
