<svg width="38" height="38" viewBox="0 0 38 37" fill="none" xmlns="http://www.w3.org/2000/svg">
<path d="M19 37C28.9411 37 37 28.9411 37 19C37 9.05887 28.9411 1 19 1C9.05887 1 1 9.05887 1 19C1 28.9411 9.05887 37 19 37Z" stroke="#7A62BE" stroke-width="0.8"/>
<path fill-rule="evenodd" clip-rule="evenodd" d="M17.871 18.0091C17.871 16.9692 17.8373 16.0998 17.8034 15.3494H20.0225L20.1409 16.5093H20.1914C20.5272 15.9631 21.3512 15.1623 22.7299 15.1623C24.4108 15.1623 25.6719 16.3044 25.6719 18.7599V23.6875H23.1165V19.0667C23.1165 17.9928 22.746 17.2594 21.8215 17.2594C21.1159 17.2594 20.696 17.7537 20.5107 18.2311C20.4431 18.4015 20.4263 18.6402 20.4263 18.8792V23.6875H17.871V18.0091ZM13.7864 23.6867H16.3417V15.3494H13.7864V23.6867ZM16.4254 13.0303C16.4254 13.7463 15.9039 14.3258 15.0467 14.3258C14.2398 14.3258 13.7188 13.7463 13.7188 13.0303C13.7188 12.2973 14.2574 11.7344 15.0807 11.7344C15.9039 11.7344 16.4086 12.2973 16.4254 13.0303Z" fill="white"/>
</svg>
