<svg width="21" height="21" viewBox="0 0 21 21" fill="none" xmlns="http://www.w3.org/2000/svg">
<path fill-rule="evenodd" clip-rule="evenodd" d="M15.2103 12.5617C14.9508 12.4319 13.6748 11.804 13.4369 11.7174C13.1989 11.6307 13.0259 11.5875 12.8529 11.8472C12.6799 12.107 12.1825 12.6917 12.031 12.8649C11.8797 13.0381 11.7283 13.0598 11.4688 12.9299C11.2092 12.7999 10.3729 12.5259 9.38159 11.6416C8.60994 10.9534 8.08906 10.1035 7.93765 9.84364C7.78629 9.58385 7.92151 9.4434 8.05151 9.31395C8.16825 9.19765 8.31105 9.01078 8.44079 8.85927C8.57054 8.70771 8.61382 8.59938 8.70033 8.4263C8.78685 8.25302 8.74362 8.10146 8.67867 7.97157C8.61382 7.84167 8.09479 6.56409 7.87848 6.04436C7.6678 5.53837 7.45383 5.60691 7.2945 5.59884C7.14329 5.59132 6.97011 5.58972 6.79708 5.58972C6.62405 5.58972 6.34285 5.65467 6.10497 5.91446C5.86705 6.17435 5.19655 6.80226 5.19655 8.07975C5.19655 9.35728 6.12654 10.5914 6.25638 10.7646C6.38613 10.9379 8.08652 13.5594 10.6901 14.6837C11.3094 14.9511 11.7929 15.1108 12.1697 15.2304C12.7915 15.428 13.3573 15.4001 13.8045 15.3333C14.3032 15.2587 15.3401 14.7054 15.5564 14.0992C15.7726 13.4928 15.7726 12.9732 15.7077 12.8649C15.6429 12.7567 15.4699 12.6917 15.2103 12.5617M10.4746 19.0278H10.4712C8.92192 19.0272 7.40243 18.6111 6.07688 17.8244L5.76166 17.6373L2.49401 18.4945L3.36617 15.3085L3.16091 14.9819C2.29667 13.6073 1.84025 12.0186 1.84089 10.3873C1.84274 5.62708 5.71583 1.75433 10.4781 1.75433C12.7841 1.75513 14.9518 2.65438 16.5819 4.28629C18.2119 5.91815 19.1091 8.08737 19.1082 10.3942C19.1063 15.1548 15.2332 19.0278 10.4746 19.0278M17.8225 3.04626C15.8613 1.08284 13.2533 0.00109574 10.4745 0C4.74914 0 0.0893527 4.65944 0.0870616 10.3866C0.0863145 12.2174 0.564605 14.0043 1.47362 15.5796L0 20.9623L5.5065 19.5178C7.0237 20.3453 8.73191 20.7815 10.4704 20.7821H10.4746H10.4747C16.1995 20.7821 20.8597 16.1222 20.862 10.3949C20.8631 7.61944 19.7836 5.00963 17.8225 3.04626" fill="white"/>
</svg>
