<svg width="20" height="15" viewBox="0 0 20 15" fill="none" xmlns="http://www.w3.org/2000/svg">
<path fill-rule="evenodd" clip-rule="evenodd" d="M17.3058 13.1853H2.47242C2.01772 13.1853 1.64806 12.8157 1.64806 12.3612V2.61958L8.17485 8.98335C8.66634 9.46294 9.31094 9.70285 9.95575 9.70285C10.6003 9.70285 11.2447 9.46294 11.736 8.98467L18.1297 2.75308V12.3616C18.1297 12.8157 17.7605 13.1853 17.3058 13.1853ZM16.9009 1.64828L10.5843 7.80475C10.2446 8.13762 9.6676 8.13674 9.32658 7.80387L3.01303 1.64828H16.9009ZM18.3663 0.248277L18.3518 0.233737L18.3472 0.238584C18.0299 0.0892211 17.679 0 17.3056 0H2.47242C2.13426 0 1.81306 0.0687333 1.5194 0.19188L1.49363 0.166987L1.41718 0.245854C0.582691 0.643493 0 1.4879 0 2.47219V12.3612C0 13.7244 1.10921 14.8334 2.47242 14.8334H17.3056C18.6688 14.8334 19.778 13.7244 19.778 12.3612V2.47242C19.7782 1.4901 19.1977 0.647238 18.3663 0.248277Z" fill="white"/>
</svg>
