<svg width="90" height="94" viewBox="0 0 90 94" fill="none" xmlns="http://www.w3.org/2000/svg">
<path fill-rule="evenodd" clip-rule="evenodd" d="M45 94C69.8528 94 90 73.8528 90 49C90 24.1472 69.8528 4 45 4C20.1472 4 0 24.1472 0 49C0 73.8528 20.1472 94 45 94Z" fill="#6B56A5"/>
<path fill-rule="evenodd" clip-rule="evenodd" d="M55.9156 2.04627C57.3859 3.21953 57.7971 5.14836 57.4239 6.90733C59.0093 7.52923 59.7064 9.74767 58.6408 11.23C58.5649 11.3356 58.4849 11.4342 58.4014 11.5262C63.9247 18.4483 62.3021 27.2068 59.5702 33.9091C58.5084 36.5156 56.7602 39.0888 54.5477 41.1488C54.4832 41.4191 54.4187 41.6858 54.355 41.9495L54.3491 41.9737C52.9187 47.8613 51.9748 51.7506 62.3643 57.2094C68.1034 60.9733 72.3556 67.197 74.7392 75.2557C76.5279 81.3021 76.6476 86.1882 76.6513 86.3934C76.6615 86.9057 76.255 87.3299 75.7417 87.3411H75.7222C75.2191 87.3411 74.8051 86.9373 74.794 86.4324C74.7903 86.2402 74.238 67.2239 61.4221 58.8078C50.76 53.2108 50.9161 48.5865 52.1903 43.0189C49.8698 44.5661 47.2122 45.5322 44.3958 45.5322C44.1489 45.5322 43.9011 45.5248 43.6523 45.509C40.8629 45.34 38.4757 44.2344 36.4615 42.6628C37.7352 48.2304 37.8859 52.8581 27.1516 58.4984C14.3961 66.8802 13.8614 85.8844 13.8577 86.0757C13.8475 86.5815 13.4335 86.9853 12.9295 86.9853H12.91C12.3976 86.9751 11.9902 86.5509 12.0004 86.0376C12.0041 85.8325 12.1238 80.9463 13.9125 74.8999C16.2961 66.8412 20.5483 60.6175 26.2104 56.8991C36.6779 51.3939 35.733 47.5046 34.3026 41.6179L34.2971 41.5952C34.1973 41.1826 34.0959 40.7629 33.9953 40.3335C32.445 38.5958 31.1982 36.6414 30.2322 34.8345C26.7096 28.2442 27.5571 20.0954 29.834 15.3142C30.1082 14.7386 30.6318 13.7271 31.4227 12.5507C31.3814 12.4439 31.3482 12.3344 31.3235 12.2232C30.4602 11.9243 29.7799 11.0945 29.7678 10.1552C29.7604 9.61307 29.9785 9.11555 30.3191 8.72292C29.7613 7.97199 29.5673 6.94075 29.9711 6.01439C30.4825 4.84205 31.6985 4.32968 32.9005 4.38444C32.9952 3.63259 33.4008 2.90673 34.0422 2.43241C35.131 1.62672 36.4704 1.80679 37.6075 2.38229C38.1366 1.48192 39.1093 0.858157 40.1861 0.728207C41.4753 0.572267 42.6737 1.12455 43.6622 1.91818C44.4883 0.83588 45.7136 0.113729 47.1356 0.0106977C48.6347 -0.0969751 50.117 0.616822 51.0722 1.76038C52.5174 0.837737 54.5697 0.973256 55.9156 2.04627ZM33.0863 10.3737C32.7571 10.059 32.2355 9.95966 31.8321 10.3872C31.8312 10.3881 31.8305 10.3891 31.8298 10.39C31.8291 10.3909 31.8284 10.3918 31.8275 10.3928C31.536 10.1978 31.6344 9.73281 32.1644 9.76437C33.3581 9.83584 33.3507 7.98591 32.1644 7.90794C31.6409 7.87453 31.4868 7.02893 31.7152 6.66507C32.1338 5.99768 33.1576 6.15826 33.7136 6.51284C34.6223 7.09204 35.5506 5.80461 34.8377 5.05461C34.5072 4.70653 34.8535 4.08649 35.2025 3.87949C35.9209 3.45066 36.9132 3.99831 37.4599 4.46984C38.0586 4.98871 39.0286 4.65455 39.0444 3.81359C39.0592 3.01904 39.9327 2.5308 40.6567 2.55215C41.6833 2.58185 42.5447 3.31885 43.2102 4.02894C43.7355 4.58865 44.5125 4.22572 44.7612 3.61867C45.1678 2.63105 46.2352 1.89404 47.2999 1.85877C48.5112 1.817 49.5601 2.55122 50.0808 3.61588C50.3259 4.11526 51.178 4.25449 51.5381 3.80338C52.2965 2.85753 53.7482 2.70716 54.7182 3.45066C55.8246 4.29905 55.9768 6.01624 55.4236 7.2155C55.1637 7.77707 55.4543 8.69878 56.2247 8.61246C57.1496 8.5083 57.5516 9.42293 57.1488 10.1154C56.1329 9.08294 54.9346 8.10122 53.5313 7.18487C48.725 4.6759 44.2231 4.09298 40.1501 5.45375C37.1095 6.47016 34.7759 8.42945 33.0863 10.3737ZM43.7646 43.6563C38.031 43.3082 34.1316 38.1919 31.8695 33.9601C28.1641 27.0254 30.0131 19.2535 31.5094 16.1124C32.2817 14.4908 35.2306 9.05615 40.7386 7.21457C44.315 6.01996 48.3296 6.56389 52.5947 8.78418C60.5653 13.9933 62.3335 22.2108 57.8382 33.2398C56.9159 35.5041 55.4251 37.7448 53.5464 39.5661C53.2341 39.6384 52.9696 39.8694 52.8681 40.1903C50.3186 42.4155 47.1532 43.8581 43.7646 43.6563ZM40.9721 58.3843C41.8836 56.9094 42.8322 55.4502 43.856 54.0486C44.1521 53.643 44.6562 53.4407 45.1258 53.7163C45.1678 53.7408 45.2078 53.7696 45.2455 53.802C44.3792 53.1077 43.1526 54.3724 44.0008 55.1736C44.2651 55.423 44.5269 55.6747 44.7863 55.9289C43.9124 57.1821 43.0893 58.4726 42.2957 59.7766C42.2631 59.8302 42.2306 59.8936 42.1967 59.9596C42.1337 60.0823 42.0663 60.2137 41.9862 60.306C41.9076 60.2349 41.8141 60.153 41.8019 60.1535C41.7202 60.0607 41.7276 60.1025 41.8242 60.2797C41.8548 60.4886 41.9003 60.5072 41.9615 60.3326C41.9699 60.3242 41.9781 60.3153 41.9862 60.306C42.0506 60.3643 42.1049 60.4154 42.0961 60.4078C42.4771 60.7269 42.86 61.0446 43.2427 61.3621L43.243 61.3623L43.2432 61.3625L43.4541 61.5375C43.9062 61.9143 44.3591 62.2912 44.8121 62.668L45.0055 62.8287C45.1673 62.963 45.3294 63.0977 45.4906 63.2324L45.5889 63.3138L45.5314 63.3925L45.4777 63.4657L45.4382 63.5196C45.5759 63.4958 45.7211 63.504 45.8606 63.5405L45.7923 63.4839C45.7246 63.4269 45.6569 63.3703 45.5889 63.3138L45.6373 63.2472L45.6378 63.2466L45.6383 63.2459C45.7902 63.0393 45.9421 62.8328 46.093 62.6263L46.2628 62.3948L46.2717 62.3826C46.4779 62.1015 46.6844 61.8199 46.8904 61.5384L47.1816 61.1416L47.1825 61.1404L47.1834 61.1392C47.3515 60.9101 47.5198 60.681 47.6877 60.4515L48.1435 59.8305C48.1675 59.7975 48.2041 59.7548 48.2445 59.7077L48.2705 59.6773L48.2808 59.6894C48.286 59.6956 48.299 59.7137 48.3163 59.7377C48.3972 59.8505 48.5722 60.0943 48.4804 59.8555V59.3617C48.4648 59.4446 48.3629 59.5691 48.2705 59.6773L48.0441 59.4109C47.865 59.2021 47.6849 58.9951 47.503 58.789C47.1391 58.3778 46.7697 57.9713 46.3938 57.5703C45.8693 57.0118 45.3333 56.4649 44.7863 55.9289C45.0072 55.6121 45.2313 55.2977 45.4591 54.9861C45.7243 54.6228 45.5695 54.08 45.2455 53.802C45.2684 53.8203 45.291 53.84 45.3133 53.8611C46.973 55.4289 48.6131 57.0876 50.0184 58.8921C50.645 59.6968 50.0051 60.4976 49.4581 61.1821L49.458 61.1822L49.4575 61.1828C49.358 61.3073 49.2617 61.4279 49.1766 61.544C48.5509 62.3979 47.9244 63.2528 47.2979 64.1068C47.2388 64.1871 47.1807 64.2714 47.1217 64.3567L47.1216 64.3568L47.1215 64.357C46.9369 64.6243 46.745 64.9022 46.4977 65.1052L46.5005 65.1191C46.9149 67.1147 47.3294 69.1106 47.7536 71.1044C48.5556 74.8776 49.4541 78.6099 50.4751 82.3302L50.5954 82.7672L50.5956 82.7681C50.8174 83.5738 51.0393 84.3801 51.2585 85.1863C51.2893 85.2995 51.328 85.4145 51.3671 85.5307C51.4814 85.8699 51.5992 86.22 51.5342 86.5684C51.4508 87.0174 51.1426 87.3392 50.8367 87.6586L50.7944 87.7027C49.4448 89.1136 47.9522 90.3769 46.3659 91.513C46.0234 91.7581 45.524 91.6235 45.2409 91.3673C43.6416 89.9267 41.9318 88.6337 40.1116 87.4827C39.7543 87.2562 39.5853 86.8478 39.6856 86.4338C41.3931 79.3191 42.9943 72.1787 44.5914 65.038C44.7345 65.7298 44.8768 66.4218 45.0191 67.114L45.0196 67.1163C45.18 67.8968 45.3405 68.6775 45.5023 69.4579C44.2445 75.065 42.9722 80.6691 41.6357 86.2578C41.4413 86.1301 41.2457 86.004 41.0491 85.8797L41.2616 86.4023L41.4752 86.9277C41.5288 86.7044 41.5823 86.4811 41.6357 86.2578C43.1456 87.2496 44.5882 88.3421 45.9537 89.525C45.7802 89.6552 45.6051 89.7835 45.4284 89.91L46.5534 90.0548C46.3552 89.8763 46.1553 89.6996 45.9537 89.525C46.576 89.0579 47.1782 88.5665 47.761 88.0489C48.149 87.7036 48.5287 87.3481 48.8981 86.9824C48.9727 86.9087 49.0545 86.8336 49.1385 86.7567C49.3168 86.593 49.5046 86.4208 49.652 86.2351C49.6789 86.3148 49.6984 86.3904 49.6954 86.445L49.6958 86.4436C49.7374 86.2881 49.7791 86.1326 49.8217 85.9762C49.7763 86.0655 49.7182 86.1517 49.652 86.2351C49.6326 86.1778 49.6093 86.1183 49.5877 86.0631C49.5631 86.0003 49.5406 85.9429 49.5284 85.9001C49.4907 85.7682 49.4551 85.6355 49.4195 85.5028C49.3963 85.4162 49.373 85.3295 49.3492 85.243C49.2137 84.7464 49.0772 84.2488 48.9408 83.7522L48.8992 83.6009C48.6717 82.7743 48.4445 81.9483 48.2205 81.1208C47.775 79.4769 47.3424 77.8284 46.9581 76.1687C46.4423 73.9395 45.967 71.6997 45.5023 69.4579C45.8261 68.014 46.1491 66.57 46.4718 65.1259C46.4047 65.1788 46.3335 65.226 46.2573 65.2661C45.7524 65.5325 45.2205 65.3905 44.7963 65.0554C44.7371 65.0085 44.678 64.9615 44.6191 64.9142L44.5914 65.038L44.5551 64.8629C44.06 64.4644 43.5736 64.0542 43.0875 63.6441C42.8227 63.4208 42.558 63.1975 42.292 62.9762L41.7447 62.5207L41.7369 62.5141L41.7223 62.502C41.5099 62.3252 41.2976 62.1484 41.0853 61.9719C41.032 61.9274 40.9777 61.8835 40.9234 61.8395C40.6317 61.6034 40.3372 61.365 40.1627 61.027C39.7546 60.2377 40.2929 59.4214 40.7496 58.7288C40.8279 58.6101 40.9038 58.495 40.9721 58.3843ZM45.4131 63.5538C45.5396 63.5411 45.6662 63.5522 45.7835 63.5898H45.4108C45.331 63.664 45.331 63.6538 45.4099 63.5582L45.4131 63.5538Z" fill="white"/>
</svg>
