<svg width="16" height="16" viewBox="0 0 16 16" fill="none" xmlns="http://www.w3.org/2000/svg">
<path fill-rule="evenodd" clip-rule="evenodd" d="M8 16C12.4183 16 16 12.4183 16 8C16 3.58172 12.4183 0 8 0C3.58172 0 0 3.58172 0 8C0 12.4183 3.58172 16 8 16Z" fill="#5CB6BE"/>
<path d="M8.25 7.25V6.5H7.5V7.25H8.25ZM7.5 6.5H10.5V5H7.5V6.5ZM10.5 6.5H12C12 5.67157 11.3284 5 10.5 5V6.5ZM10.5 6.5V8C11.3284 8 12 7.32843 12 6.5H10.5ZM10.5 6.5H8.25V8H10.5V6.5ZM7.5 7.25V9.5H9V7.25H7.5ZM7.5 9.5V11C8.32843 11 9 10.3284 9 9.5H7.5ZM7.5 9.5H6C6 10.3284 6.67157 11 7.5 11V9.5ZM7.5 9.5V6.5H6V9.5H7.5ZM7.5 6.5V5C6.67157 5 6 5.67157 6 6.5H7.5Z" fill="white"/>
</svg>
