<svg width="123" height="90" viewBox="0 0 123 90" fill="none" xmlns="http://www.w3.org/2000/svg">
<path fill-rule="evenodd" clip-rule="evenodd" d="M61 90C85.8528 90 106 69.8528 106 45C106 20.1472 85.8528 0 61 0C36.1472 0 16 20.1472 16 45C16 69.8528 36.1472 90 61 90Z" fill="#6B56A5"/>
<path fill-rule="evenodd" clip-rule="evenodd" d="M97.7177 44.7658C93.452 44.5072 90.5391 40.6755 88.8462 37.5068V37.5059C86.0681 32.3087 87.4553 26.483 88.5767 24.1299C89.1546 22.9154 91.3602 18.8477 95.4695 17.474C96.3892 17.1656 97.3478 17.0137 98.3408 17.0137C100.223 17.0137 102.226 17.5626 104.303 18.6433C110.266 22.541 111.585 28.7013 108.212 36.9777C107.525 38.6625 106.369 40.3599 104.915 41.7408C104.752 41.8177 104.618 41.9371 104.524 42.0971C102.603 43.7855 100.223 44.9114 97.7177 44.7658ZM84.2621 54.8573C83.7946 55.1647 83.3397 55.4966 82.8975 55.8466C82.7772 51.0039 82.9907 45.7751 86.1097 41.9118C86.1965 42.0574 86.2824 42.2039 86.3837 42.3404C87.3947 43.7069 88.9448 44.585 90.6259 44.7441C91.4724 48.5459 91.3259 51.1423 84.2621 54.8573ZM90.1041 42.5348L90.1765 42.836C89.2694 42.6081 88.4203 42.0881 87.8858 41.3456C87.2048 40.4006 86.9851 39.2946 87.1777 38.2058C87.203 38.2565 87.2247 38.308 87.251 38.3577C87.9835 39.7305 88.9303 41.2109 90.1041 42.5348ZM61.4531 41.3683C56.0217 41.0391 52.3284 36.1901 50.186 32.1803C49.2501 30.4295 48.6966 28.6244 48.4027 26.8601C48.8657 26.5472 49.3034 26.2053 49.7104 25.8282C49.9364 26.3708 50.3416 26.842 50.9909 27.1323C51.8482 27.5139 52.833 27.5456 53.76 27.5691C54.7158 27.5935 55.6672 27.5401 56.614 27.418C57.6504 27.2833 58.7157 27.1413 59.5621 26.4766C60.2476 25.9368 60.6998 25.0234 60.5822 24.1444C60.7839 24.0666 60.9883 23.9961 61.1981 23.9409C61.3165 23.9101 61.435 23.883 61.5562 23.8604C61.6195 23.8486 61.9885 23.7437 61.709 23.8324C61.9098 23.7691 62.1874 23.7953 62.3963 23.7971C62.6079 23.798 62.8232 23.8107 63.033 23.8387C63.1026 23.8523 63.2093 23.8722 63.2364 23.8776C63.354 23.9029 63.4743 23.9318 63.5918 23.9635C63.7103 23.9961 63.827 24.0322 63.9418 24.0729C63.959 24.0793 64.0133 24.101 64.0666 24.1227C64.1326 25.5714 65.292 26.8357 66.6467 27.3457C67.4796 27.6595 68.4011 27.7228 69.2828 27.7382C70.1853 27.7517 71.1376 27.7798 72.0103 27.5121C73.3803 27.0925 74.5044 25.7966 74.4049 24.4166C74.8933 24.9962 75.4476 25.5262 76.0707 25.9811C76.1982 26.0742 76.3447 26.123 76.4957 26.1384C76.1132 27.8404 75.548 29.6246 74.7848 31.4993C72.6731 36.6766 67.4063 41.7399 61.4531 41.3683ZM49.8442 15.2675C49.9554 15.0359 50.1182 14.7149 50.3235 14.3423C50.8344 16.3264 51.1582 18.3548 50.5622 20.3706C50.1245 21.851 49.279 23.1803 48.1477 24.2113C48.0373 20.4004 48.9968 17.0472 49.8442 15.2675ZM58.2934 24.29C58.3115 24.3379 58.3232 24.4247 58.3314 24.4645C58.3314 24.4708 58.3323 24.4735 58.3341 24.4754C58.335 24.479 58.3359 24.4871 58.3377 24.4889C58.2472 24.6806 58.2255 24.6888 58.0203 24.8054C57.6224 25.0288 57.0255 25.1011 56.5317 25.1699C55.2015 25.3516 53.7491 25.4231 52.4179 25.2241C52.5391 25.2422 52.2561 25.1871 52.219 25.178C52.181 25.169 51.9106 25.0885 52.0173 25.1328C51.982 25.1165 51.7478 24.9754 51.8428 25.0469C51.7306 24.9619 51.7831 25.0189 51.7478 24.9384C51.6809 24.7846 51.708 24.6001 51.7759 24.3985C51.7415 24.5043 51.841 24.2628 51.8645 24.2221C51.8943 24.1688 51.9278 24.1172 51.964 24.0675C51.9739 24.0521 51.9721 24.0548 51.9775 24.0467C51.9829 24.0422 51.9902 24.0368 52.0173 24.006C52.3203 23.6732 52.6684 23.4661 53.0546 23.3467C53.6352 23.165 54.232 23.1406 54.837 23.1532C55.4266 23.165 56.1899 23.1975 56.6267 23.2726C56.8663 23.3151 57.2398 23.4064 57.3872 23.4706C57.3927 23.4734 57.5997 23.5864 57.6739 23.6397C57.5428 23.5466 57.8629 23.8468 57.7779 23.7338C57.9099 23.912 58.0763 24.0566 58.2608 24.1543C58.2699 24.1995 58.2762 24.2457 58.2934 24.29ZM72.1477 24.7213C72.1486 24.6625 72.1025 24.7955 72.1233 24.7756C72.0962 24.8199 72.0546 24.8913 72.0482 24.9094C71.9877 24.9827 71.9189 25.0523 71.8475 25.1147C71.9515 25.0243 71.7091 25.2033 71.6576 25.2323C71.4966 25.3209 71.5364 25.2983 71.342 25.3516C70.7948 25.5072 70.236 25.4846 69.6255 25.4819C69.0097 25.4783 68.4219 25.4764 67.8892 25.3589C67.2661 25.2223 66.9388 25.0614 66.5779 24.6562C66.672 24.762 66.4631 24.4735 66.4278 24.4202C66.4278 24.4193 66.4179 24.3994 66.407 24.3795C66.6186 24.157 66.7181 23.8568 66.7163 23.533C66.7172 23.5294 66.7181 23.5204 66.7199 23.514C66.7326 23.5086 66.7588 23.4914 66.7706 23.4797C66.9795 23.3838 67.1549 23.3865 67.438 23.3775C68.1117 23.3558 68.7854 23.3838 69.4555 23.4571C69.9773 23.514 70.5235 23.6054 71.0354 23.7718C71.0869 23.789 71.3673 23.8939 71.3103 23.8704C71.2542 23.845 71.5192 23.9762 71.5671 24.0024C71.6612 24.0548 71.7489 24.1127 71.8384 24.1706C71.8412 24.1724 71.8538 24.1823 71.8683 24.1932C71.8909 24.2176 71.9886 24.3108 72.0021 24.3216C72.032 24.346 72.0419 24.3515 72.0501 24.3551C72.0537 24.3641 72.0546 24.3714 72.0699 24.3994C72.0889 24.4374 72.1106 24.4744 72.1314 24.5115C72.1323 24.516 72.1314 24.5151 72.1333 24.5215C72.1423 24.5613 72.1531 24.6001 72.1622 24.6399C72.1586 24.6481 72.1586 24.6553 72.1531 24.6635C72.1531 24.6635 72.1504 24.6933 72.1477 24.7213ZM55.5813 8.35565C55.603 8.73456 55.8146 9.11076 56.1393 9.30067C56.6927 9.62533 57.3456 9.40467 57.6848 8.89463C58.3115 7.95593 59.1055 7.15289 59.9926 6.47464C60.726 6.33085 61.4748 6.25036 62.2417 6.25036C62.2842 6.25036 62.3267 6.25489 62.3692 6.25489C62.1404 6.41767 61.9071 6.5705 61.6873 6.74775C61.2126 7.13209 61.2876 7.94508 61.6873 8.3457C62.1576 8.81505 62.8087 8.73004 63.2853 8.3457C64.0965 7.68916 65.0171 7.17459 65.9901 6.78754C67.2372 7.1339 68.515 7.64484 69.8164 8.32309C71.8502 9.65155 73.4436 11.1952 74.6238 12.9352C74.6039 12.9542 74.5759 12.9605 74.5569 12.9813C72.8866 14.9193 72.0627 17.4514 72.4109 19.9998C72.5194 20.8011 72.75 21.5616 73.0674 22.2805C72.0808 21.5914 70.7786 21.3545 69.6038 21.2143C68.5702 21.0904 67.4515 21.0163 66.4242 21.2288C65.831 21.3518 65.3462 21.6593 65.0089 22.0762C63.2265 21.3274 61.1456 21.3853 59.3994 22.2236C58.3142 21.114 56.765 20.9729 55.2304 20.9069C54.3957 20.8707 53.5167 20.9132 52.6928 21.1185C53.5999 18.2273 52.9551 15.2647 52.1466 12.4324C52.0897 12.2325 51.9929 12.0779 51.8762 11.9558C52.8041 10.7286 54.034 9.41643 55.5813 8.35565ZM65.112 4.74465C64.7367 4.67231 64.3605 4.59815 63.9907 4.55384C64.8172 4.35398 65.6691 4.25541 66.5237 4.26174C66.0444 4.39558 65.575 4.55746 65.112 4.74465ZM76.9063 23.7808C74.3299 21.6367 73.8723 17.7318 75.8094 15.0278C76.9561 17.5798 77.3151 20.5044 76.9063 23.7808ZM24.1974 41.6242C19.9235 41.3655 17.0016 37.5239 15.3042 34.347C14.8149 33.4318 14.4451 32.4434 14.1765 31.4161C15.9426 30.3472 17.6889 29.2457 19.4135 28.109C21.1823 26.9415 22.9286 25.7387 24.6495 24.5016C26.2656 23.3395 27.8961 22.1747 29.4253 20.8969C30.288 20.1771 31.0866 19.3912 31.7657 18.5167C32.6908 21.8754 34.2698 25.0288 36.3932 27.8042C36.1481 29.6653 35.5938 31.6684 34.7184 33.8162C33.0897 37.8124 28.8474 41.8937 24.1974 41.6242ZM14.332 22.7472C14.5075 22.172 14.7824 21.4612 15.0329 20.9358C15.6126 19.7186 17.8246 15.64 21.9447 14.2636C24.6134 13.3702 27.6185 13.7807 30.8008 15.4366C30.9247 15.517 31.0341 15.6048 31.1535 15.6871C31.1553 15.7196 31.1499 15.7522 31.1553 15.7847C31.205 16.0877 31.2729 16.3861 31.3325 16.6873C30.6462 17.852 29.6668 18.8377 28.6449 19.7122C27.1925 20.9548 25.6199 22.0671 24.0708 23.184C20.7645 25.566 17.367 27.8205 13.888 29.9393C12.6825 30.6736 11.4653 31.3853 10.2417 32.0862C11.383 30.3309 12.4311 28.5159 13.5371 26.7353C13.8826 26.1782 13.3137 25.5804 12.7386 25.6971C12.4953 25.7459 12.2512 25.7948 12.0079 25.8445C12.697 24.8669 13.3852 23.8884 14.0779 22.9118C14.124 22.8467 14.1448 22.7707 14.1593 22.6947L14.332 22.7472ZM36.5361 25.6121C34.7844 23.0058 33.5319 20.0794 32.8337 17.0173C35.2872 19.3017 36.5189 22.1756 36.5361 25.6121ZM111.926 55.0824C104.171 51.0084 104.837 48.2701 105.938 43.7322L106.076 43.1624C107.758 41.5835 109.086 39.6229 109.896 37.6361C114.551 26.2162 109.962 20.1816 105.216 17.0852C101.514 15.1526 98.0423 14.7068 94.8962 15.7585C90.1105 17.3583 87.6 21.9749 86.9435 23.3513C85.4938 26.3952 84.8047 31.2135 86.1477 35.6583C86.0455 35.822 85.9433 35.9848 85.8402 36.1485C85.7742 36.2506 85.738 36.3628 85.7335 36.484C85.7145 36.5699 85.7308 36.6567 85.7452 36.7435C85.7118 36.8005 85.6711 36.8538 85.6476 36.9171C85.2868 37.8839 85.2144 38.9591 85.398 39.9864C85.3781 40.0045 85.3555 40.0099 85.3356 40.0317C81.3457 44.3525 80.9749 50.2922 81.0952 55.9009C80.6566 55.569 80.2125 55.247 79.7541 54.9468C69.6319 49.6284 70.5516 45.8393 71.9443 40.104C72.0437 39.6925 72.1459 39.2729 72.2454 38.8452C72.2752 38.7204 72.2752 38.5965 72.2535 38.478C74.0911 36.6205 75.5543 34.4022 76.4722 32.1495C79.6492 24.3551 81.2435 13.6306 70.7297 6.76402C70.2206 6.49815 69.716 6.26303 69.2141 6.04327C70.1564 5.97002 71.1059 6.00529 72.0284 6.18435C72.627 6.30101 73.2474 6.01433 73.4174 5.39577C73.5702 4.84142 73.2311 4.12247 72.6288 4.00491C70.7885 3.6477 68.931 3.69834 67.1558 4.10077C67.9733 3.59344 67.778 2.01629 66.5617 2.00091C63.4553 1.96293 60.4493 3.11234 58.1161 5.09282C58.0827 5.10458 58.0474 5.1091 58.0139 5.12086C52.1204 7.09139 49.0213 12.7896 48.2119 14.4897C46.8554 17.3366 46.0343 21.4413 46.4349 25.6501C46.2549 26.0344 46.3381 26.4848 46.5778 26.8185C46.8952 28.9391 47.5364 31.0589 48.5908 33.0321C49.4951 34.7241 50.6608 36.5509 52.105 38.1841C52.0924 38.2863 52.0888 38.3912 52.1141 38.497C52.2145 38.9257 52.3157 39.3453 52.4161 39.7567C53.8079 45.4929 54.7285 49.2821 44.5294 54.6447C43.8684 55.0788 43.2281 55.55 42.6077 56.0528C41.4086 54.6918 40.0693 53.5044 38.5473 52.5096C30.7918 48.4356 31.4564 45.6955 32.5588 41.1594L32.7939 40.1773L32.4738 40.1022C34.2056 38.5051 35.5757 36.5048 36.4031 34.4745C41.0686 23.0293 36.4701 16.9812 31.7142 13.8775C28.0046 11.9422 24.5238 11.4928 21.3713 12.5481C16.5739 14.1515 14.0571 18.7781 13.4006 20.1581C13.1103 20.7658 12.8046 21.5562 12.602 22.2199L12.7992 22.2805C11.7972 23.6949 10.8024 25.1156 9.80042 26.53C9.41337 27.0753 10.0491 27.6794 10.598 27.5682L11.4834 27.39C10.2517 29.4257 9.0435 31.4758 7.63274 33.3984C7.53688 33.5295 7.52512 33.6914 7.55316 33.8478C7.44735 34.3579 7.99899 34.9701 8.60037 34.6382C9.93064 33.9048 11.2464 33.1461 12.5559 32.3756C12.8489 33.3604 13.2324 34.3081 13.7089 35.1989C14.4713 36.6269 15.467 38.1696 16.7059 39.5343C16.6833 39.6545 16.6824 39.7793 16.7113 39.9069L16.9473 40.8899C18.0488 45.426 18.7135 48.1652 10.8829 52.2835C0.434262 59.1456 0.012844 73.9513 0.00018334 74.5789C-0.0097643 75.0781 0.386333 75.4914 0.885524 75.5004C0.891854 75.5013 0.898184 75.5013 0.904514 75.5013C1.39466 75.5013 1.79799 75.1089 1.80885 74.6169C1.81156 74.4722 2.23207 60.1286 11.7999 53.8408C20.0863 49.4873 19.9226 45.7452 18.9658 41.5609C20.4272 42.5963 22.1274 43.3117 24.0879 43.4292C24.2815 43.441 24.4741 43.4473 24.6658 43.4473C26.81 43.4473 28.8294 42.7184 30.6027 41.5582C29.5935 45.8546 29.2354 49.6601 37.6303 54.066C38.9488 54.9323 40.1588 56.0067 41.2494 57.2456C37.3608 60.8946 34.3838 65.9769 32.5489 72.1815C30.8062 78.0723 30.6896 82.8336 30.6859 83.0326C30.676 83.5327 31.073 83.946 31.5722 83.9559C31.5785 83.9568 31.5849 83.9568 31.5912 83.9568C32.0822 83.9568 32.4856 83.5634 32.4955 83.0697C32.4991 82.8834 33.02 64.3681 45.4473 56.202C56.142 50.5834 55.7468 45.9948 54.4328 40.4051C56.3635 41.9298 58.6551 43.0105 61.3437 43.1733C61.5806 43.1878 61.8157 43.195 62.05 43.195C64.9529 43.195 67.6749 42.1107 70.0063 40.4187C68.6326 46.1603 68.0032 50.8167 78.8371 56.5031C91.3223 64.7036 91.8603 83.2307 91.864 83.416C91.8748 83.9098 92.2781 84.3023 92.7683 84.3023H92.7882C93.2874 84.2914 93.6844 83.8791 93.6735 83.379C93.6699 83.18 93.5541 78.4196 91.8115 72.5288C90.0191 66.4716 87.1397 61.4833 83.3515 57.8343C83.9538 57.3062 84.5769 56.8133 85.1791 56.4136C93.1011 52.251 93.2991 48.6499 92.4653 44.6844C93.9313 45.728 95.6377 46.4515 97.6083 46.5709C97.8018 46.5826 97.9935 46.589 98.1852 46.589C100.204 46.589 102.114 45.9451 103.81 44.8997C102.962 48.8869 103.117 52.4988 111.009 56.6397C120.653 62.9736 121.073 77.3163 121.077 77.4601C121.087 77.953 121.49 78.3464 121.98 78.3464C121.986 78.3464 121.993 78.3464 122 78.3455C122.498 78.3355 122.895 77.9222 122.885 77.423C122.872 76.7963 122.451 61.9906 111.926 55.0824Z" fill="white"/>
<mask id="mask0" mask-type="alpha" maskUnits="userSpaceOnUse" x="0" y="2" width="123" height="83">
<path fill-rule="evenodd" clip-rule="evenodd" d="M97.7177 44.7658C93.452 44.5072 90.5391 40.6755 88.8462 37.5068V37.5059C86.0681 32.3087 87.4553 26.483 88.5767 24.1299C89.1546 22.9154 91.3602 18.8477 95.4695 17.474C96.3892 17.1656 97.3478 17.0137 98.3408 17.0137C100.223 17.0137 102.226 17.5626 104.303 18.6433C110.266 22.541 111.585 28.7013 108.212 36.9777C107.525 38.6625 106.369 40.3599 104.915 41.7408C104.752 41.8177 104.618 41.9371 104.524 42.0971C102.603 43.7855 100.223 44.9114 97.7177 44.7658ZM84.2621 54.8573C83.7946 55.1647 83.3397 55.4966 82.8975 55.8466C82.7772 51.0039 82.9907 45.7751 86.1097 41.9118C86.1965 42.0574 86.2824 42.2039 86.3837 42.3404C87.3947 43.7069 88.9448 44.585 90.6259 44.7441C91.4724 48.5459 91.3259 51.1423 84.2621 54.8573ZM90.1041 42.5348L90.1765 42.836C89.2694 42.6081 88.4203 42.0881 87.8858 41.3456C87.2048 40.4006 86.9851 39.2946 87.1777 38.2058C87.203 38.2565 87.2247 38.308 87.251 38.3577C87.9835 39.7305 88.9303 41.2109 90.1041 42.5348ZM61.4531 41.3683C56.0217 41.0391 52.3284 36.1901 50.186 32.1803C49.2501 30.4295 48.6966 28.6244 48.4027 26.8601C48.8657 26.5472 49.3034 26.2053 49.7104 25.8282C49.9364 26.3708 50.3416 26.842 50.9909 27.1323C51.8482 27.5139 52.833 27.5456 53.76 27.5691C54.7158 27.5935 55.6672 27.5401 56.614 27.418C57.6504 27.2833 58.7157 27.1413 59.5621 26.4766C60.2476 25.9368 60.6998 25.0234 60.5822 24.1444C60.7839 24.0666 60.9883 23.9961 61.1981 23.9409C61.3165 23.9101 61.435 23.883 61.5562 23.8604C61.6195 23.8486 61.9885 23.7437 61.709 23.8324C61.9098 23.7691 62.1874 23.7953 62.3963 23.7971C62.6079 23.798 62.8232 23.8107 63.033 23.8387C63.1026 23.8523 63.2093 23.8722 63.2364 23.8776C63.354 23.9029 63.4743 23.9318 63.5918 23.9635C63.7103 23.9961 63.827 24.0322 63.9418 24.0729C63.959 24.0793 64.0133 24.101 64.0666 24.1227C64.1326 25.5714 65.292 26.8357 66.6467 27.3457C67.4796 27.6595 68.4011 27.7228 69.2828 27.7382C70.1853 27.7517 71.1376 27.7798 72.0103 27.5121C73.3803 27.0925 74.5044 25.7966 74.4049 24.4166C74.8933 24.9962 75.4476 25.5262 76.0707 25.9811C76.1982 26.0742 76.3447 26.123 76.4957 26.1384C76.1132 27.8404 75.548 29.6246 74.7848 31.4993C72.6731 36.6766 67.4063 41.7399 61.4531 41.3683ZM49.8442 15.2675C49.9554 15.0359 50.1182 14.7149 50.3235 14.3423C50.8344 16.3264 51.1582 18.3548 50.5622 20.3706C50.1245 21.851 49.279 23.1803 48.1477 24.2113C48.0373 20.4004 48.9968 17.0472 49.8442 15.2675ZM58.2934 24.29C58.3115 24.3379 58.3232 24.4247 58.3314 24.4645C58.3314 24.4708 58.3323 24.4735 58.3341 24.4754C58.335 24.479 58.3359 24.4871 58.3377 24.4889C58.2472 24.6806 58.2255 24.6888 58.0203 24.8054C57.6224 25.0288 57.0255 25.1011 56.5317 25.1699C55.2015 25.3516 53.7491 25.4231 52.4179 25.2241C52.5391 25.2422 52.2561 25.1871 52.219 25.178C52.181 25.169 51.9106 25.0885 52.0173 25.1328C51.982 25.1165 51.7478 24.9754 51.8428 25.0469C51.7306 24.9619 51.7831 25.0189 51.7478 24.9384C51.6809 24.7846 51.708 24.6001 51.7759 24.3985C51.7415 24.5043 51.841 24.2628 51.8645 24.2221C51.8943 24.1688 51.9278 24.1172 51.964 24.0675C51.9739 24.0521 51.9721 24.0548 51.9775 24.0467C51.9829 24.0422 51.9902 24.0368 52.0173 24.006C52.3203 23.6732 52.6684 23.4661 53.0546 23.3467C53.6352 23.165 54.232 23.1406 54.837 23.1532C55.4266 23.165 56.1899 23.1975 56.6267 23.2726C56.8663 23.3151 57.2398 23.4064 57.3872 23.4706C57.3927 23.4734 57.5997 23.5864 57.6739 23.6397C57.5428 23.5466 57.8629 23.8468 57.7779 23.7338C57.9099 23.912 58.0763 24.0566 58.2608 24.1543C58.2699 24.1995 58.2762 24.2457 58.2934 24.29ZM72.1477 24.7213C72.1486 24.6625 72.1025 24.7955 72.1233 24.7756C72.0962 24.8199 72.0546 24.8913 72.0482 24.9094C71.9877 24.9827 71.9189 25.0523 71.8475 25.1147C71.9515 25.0243 71.7091 25.2033 71.6576 25.2323C71.4966 25.3209 71.5364 25.2983 71.342 25.3516C70.7948 25.5072 70.236 25.4846 69.6255 25.4819C69.0097 25.4783 68.4219 25.4764 67.8892 25.3589C67.2661 25.2223 66.9388 25.0614 66.5779 24.6562C66.672 24.762 66.4631 24.4735 66.4278 24.4202C66.4278 24.4193 66.4179 24.3994 66.407 24.3795C66.6186 24.157 66.7181 23.8568 66.7163 23.533C66.7172 23.5294 66.7181 23.5204 66.7199 23.514C66.7326 23.5086 66.7588 23.4914 66.7706 23.4797C66.9795 23.3838 67.1549 23.3865 67.438 23.3775C68.1117 23.3558 68.7854 23.3838 69.4555 23.4571C69.9773 23.514 70.5235 23.6054 71.0354 23.7718C71.0869 23.789 71.3673 23.8939 71.3103 23.8704C71.2542 23.845 71.5192 23.9762 71.5671 24.0024C71.6612 24.0548 71.7489 24.1127 71.8384 24.1706C71.8412 24.1724 71.8538 24.1823 71.8683 24.1932C71.8909 24.2176 71.9886 24.3108 72.0021 24.3216C72.032 24.346 72.0419 24.3515 72.0501 24.3551C72.0537 24.3641 72.0546 24.3714 72.0699 24.3994C72.0889 24.4374 72.1106 24.4744 72.1314 24.5115C72.1323 24.516 72.1314 24.5151 72.1333 24.5215C72.1423 24.5613 72.1531 24.6001 72.1622 24.6399C72.1586 24.6481 72.1586 24.6553 72.1531 24.6635C72.1531 24.6635 72.1504 24.6933 72.1477 24.7213ZM55.5813 8.35565C55.603 8.73456 55.8146 9.11076 56.1393 9.30067C56.6927 9.62533 57.3456 9.40467 57.6848 8.89463C58.3115 7.95593 59.1055 7.15289 59.9926 6.47464C60.726 6.33085 61.4748 6.25036 62.2417 6.25036C62.2842 6.25036 62.3267 6.25489 62.3692 6.25489C62.1404 6.41767 61.9071 6.5705 61.6873 6.74775C61.2126 7.13209 61.2876 7.94508 61.6873 8.3457C62.1576 8.81505 62.8087 8.73004 63.2853 8.3457C64.0965 7.68916 65.0171 7.17459 65.9901 6.78754C67.2372 7.1339 68.515 7.64484 69.8164 8.32309C71.8502 9.65155 73.4436 11.1952 74.6238 12.9352C74.6039 12.9542 74.5759 12.9605 74.5569 12.9813C72.8866 14.9193 72.0627 17.4514 72.4109 19.9998C72.5194 20.8011 72.75 21.5616 73.0674 22.2805C72.0808 21.5914 70.7786 21.3545 69.6038 21.2143C68.5702 21.0904 67.4515 21.0163 66.4242 21.2288C65.831 21.3518 65.3462 21.6593 65.0089 22.0762C63.2265 21.3274 61.1456 21.3853 59.3994 22.2236C58.3142 21.114 56.765 20.9729 55.2304 20.9069C54.3957 20.8707 53.5167 20.9132 52.6928 21.1185C53.5999 18.2273 52.9551 15.2647 52.1466 12.4324C52.0897 12.2325 51.9929 12.0779 51.8762 11.9558C52.8041 10.7286 54.034 9.41643 55.5813 8.35565ZM65.112 4.74465C64.7367 4.67231 64.3605 4.59815 63.9907 4.55384C64.8172 4.35398 65.6691 4.25541 66.5237 4.26174C66.0444 4.39558 65.575 4.55746 65.112 4.74465ZM76.9063 23.7808C74.3299 21.6367 73.8723 17.7318 75.8094 15.0278C76.9561 17.5798 77.3151 20.5044 76.9063 23.7808ZM24.1974 41.6242C19.9235 41.3655 17.0016 37.5239 15.3042 34.347C14.8149 33.4318 14.4451 32.4434 14.1765 31.4161C15.9426 30.3472 17.6889 29.2457 19.4135 28.109C21.1823 26.9415 22.9286 25.7387 24.6495 24.5016C26.2656 23.3395 27.8961 22.1747 29.4253 20.8969C30.288 20.1771 31.0866 19.3912 31.7657 18.5167C32.6908 21.8754 34.2698 25.0288 36.3932 27.8042C36.1481 29.6653 35.5938 31.6684 34.7184 33.8162C33.0897 37.8124 28.8474 41.8937 24.1974 41.6242ZM14.332 22.7472C14.5075 22.172 14.7824 21.4612 15.0329 20.9358C15.6126 19.7186 17.8246 15.64 21.9447 14.2636C24.6134 13.3702 27.6185 13.7807 30.8008 15.4366C30.9247 15.517 31.0341 15.6048 31.1535 15.6871C31.1553 15.7196 31.1499 15.7522 31.1553 15.7847C31.205 16.0877 31.2729 16.3861 31.3325 16.6873C30.6462 17.852 29.6668 18.8377 28.6449 19.7122C27.1925 20.9548 25.6199 22.0671 24.0708 23.184C20.7645 25.566 17.367 27.8205 13.888 29.9393C12.6825 30.6736 11.4653 31.3853 10.2417 32.0862C11.383 30.3309 12.4311 28.5159 13.5371 26.7353C13.8826 26.1782 13.3137 25.5804 12.7386 25.6971C12.4953 25.7459 12.2512 25.7948 12.0079 25.8445C12.697 24.8669 13.3852 23.8884 14.0779 22.9118C14.124 22.8467 14.1448 22.7707 14.1593 22.6947L14.332 22.7472ZM36.5361 25.6121C34.7844 23.0058 33.5319 20.0794 32.8337 17.0173C35.2872 19.3017 36.5189 22.1756 36.5361 25.6121ZM111.926 55.0824C104.171 51.0084 104.837 48.2701 105.938 43.7322L106.076 43.1624C107.758 41.5835 109.086 39.6229 109.896 37.6361C114.551 26.2162 109.962 20.1816 105.216 17.0852C101.514 15.1526 98.0423 14.7068 94.8962 15.7585C90.1105 17.3583 87.6 21.9749 86.9435 23.3513C85.4938 26.3952 84.8047 31.2135 86.1477 35.6583C86.0455 35.822 85.9433 35.9848 85.8402 36.1485C85.7742 36.2506 85.738 36.3628 85.7335 36.484C85.7145 36.5699 85.7308 36.6567 85.7452 36.7435C85.7118 36.8005 85.6711 36.8538 85.6476 36.9171C85.2868 37.8839 85.2144 38.9591 85.398 39.9864C85.3781 40.0045 85.3555 40.0099 85.3356 40.0317C81.3457 44.3525 80.9749 50.2922 81.0952 55.9009C80.6566 55.569 80.2125 55.247 79.7541 54.9468C69.6319 49.6284 70.5516 45.8393 71.9443 40.104C72.0437 39.6925 72.1459 39.2729 72.2454 38.8452C72.2752 38.7204 72.2752 38.5965 72.2535 38.478C74.0911 36.6205 75.5543 34.4022 76.4722 32.1495C79.6492 24.3551 81.2435 13.6306 70.7297 6.76402C70.2206 6.49815 69.716 6.26303 69.2141 6.04327C70.1564 5.97002 71.1059 6.00529 72.0284 6.18435C72.627 6.30101 73.2474 6.01433 73.4174 5.39577C73.5702 4.84142 73.2311 4.12247 72.6288 4.00491C70.7885 3.6477 68.931 3.69834 67.1558 4.10077C67.9733 3.59344 67.778 2.01629 66.5617 2.00091C63.4553 1.96293 60.4493 3.11234 58.1161 5.09282C58.0827 5.10458 58.0474 5.1091 58.0139 5.12086C52.1204 7.09139 49.0213 12.7896 48.2119 14.4897C46.8554 17.3366 46.0343 21.4413 46.4349 25.6501C46.2549 26.0344 46.3381 26.4848 46.5778 26.8185C46.8952 28.9391 47.5364 31.0589 48.5908 33.0321C49.4951 34.7241 50.6608 36.5509 52.105 38.1841C52.0924 38.2863 52.0888 38.3912 52.1141 38.497C52.2145 38.9257 52.3157 39.3453 52.4161 39.7567C53.8079 45.4929 54.7285 49.2821 44.5294 54.6447C43.8684 55.0788 43.2281 55.55 42.6077 56.0528C41.4086 54.6918 40.0693 53.5044 38.5473 52.5096C30.7918 48.4356 31.4564 45.6955 32.5588 41.1594L32.7939 40.1773L32.4738 40.1022C34.2056 38.5051 35.5757 36.5048 36.4031 34.4745C41.0686 23.0293 36.4701 16.9812 31.7142 13.8775C28.0046 11.9422 24.5238 11.4928 21.3713 12.5481C16.5739 14.1515 14.0571 18.7781 13.4006 20.1581C13.1103 20.7658 12.8046 21.5562 12.602 22.2199L12.7992 22.2805C11.7972 23.6949 10.8024 25.1156 9.80042 26.53C9.41337 27.0753 10.0491 27.6794 10.598 27.5682L11.4834 27.39C10.2517 29.4257 9.0435 31.4758 7.63274 33.3984C7.53688 33.5295 7.52512 33.6914 7.55316 33.8478C7.44735 34.3579 7.99899 34.9701 8.60037 34.6382C9.93064 33.9048 11.2464 33.1461 12.5559 32.3756C12.8489 33.3604 13.2324 34.3081 13.7089 35.1989C14.4713 36.6269 15.467 38.1696 16.7059 39.5343C16.6833 39.6545 16.6824 39.7793 16.7113 39.9069L16.9473 40.8899C18.0488 45.426 18.7135 48.1652 10.8829 52.2835C0.434262 59.1456 0.012844 73.9513 0.00018334 74.5789C-0.0097643 75.0781 0.386333 75.4914 0.885524 75.5004C0.891854 75.5013 0.898184 75.5013 0.904514 75.5013C1.39466 75.5013 1.79799 75.1089 1.80885 74.6169C1.81156 74.4722 2.23207 60.1286 11.7999 53.8408C20.0863 49.4873 19.9226 45.7452 18.9658 41.5609C20.4272 42.5963 22.1274 43.3117 24.0879 43.4292C24.2815 43.441 24.4741 43.4473 24.6658 43.4473C26.81 43.4473 28.8294 42.7184 30.6027 41.5582C29.5935 45.8546 29.2354 49.6601 37.6303 54.066C38.9488 54.9323 40.1588 56.0067 41.2494 57.2456C37.3608 60.8946 34.3838 65.9769 32.5489 72.1815C30.8062 78.0723 30.6896 82.8336 30.6859 83.0326C30.676 83.5327 31.073 83.946 31.5722 83.9559C31.5785 83.9568 31.5849 83.9568 31.5912 83.9568C32.0822 83.9568 32.4856 83.5634 32.4955 83.0697C32.4991 82.8834 33.02 64.3681 45.4473 56.202C56.142 50.5834 55.7468 45.9948 54.4328 40.4051C56.3635 41.9298 58.6551 43.0105 61.3437 43.1733C61.5806 43.1878 61.8157 43.195 62.05 43.195C64.9529 43.195 67.6749 42.1107 70.0063 40.4187C68.6326 46.1603 68.0032 50.8167 78.8371 56.5031C91.3223 64.7036 91.8603 83.2307 91.864 83.416C91.8748 83.9098 92.2781 84.3023 92.7683 84.3023H92.7882C93.2874 84.2914 93.6844 83.8791 93.6735 83.379C93.6699 83.18 93.5541 78.4196 91.8115 72.5288C90.0191 66.4716 87.1397 61.4833 83.3515 57.8343C83.9538 57.3062 84.5769 56.8133 85.1791 56.4136C93.1011 52.251 93.2991 48.6499 92.4653 44.6844C93.9313 45.728 95.6377 46.4515 97.6083 46.5709C97.8018 46.5826 97.9935 46.589 98.1852 46.589C100.204 46.589 102.114 45.9451 103.81 44.8997C102.962 48.8869 103.117 52.4988 111.009 56.6397C120.653 62.9736 121.073 77.3163 121.077 77.4601C121.087 77.953 121.49 78.3464 121.98 78.3464C121.986 78.3464 121.993 78.3464 122 78.3455C122.498 78.3355 122.895 77.9222 122.885 77.423C122.872 76.7963 122.451 61.9906 111.926 55.0824Z" fill="white"/>
</mask>
<g mask="url(#mask0)">
</g>
</svg>
