<svg width="124" height="90" viewBox="0 0 124 90" fill="none" xmlns="http://www.w3.org/2000/svg">
<path fill-rule="evenodd" clip-rule="evenodd" d="M62 90C86.8528 90 107 69.8528 107 45C107 20.1472 86.8528 0 62 0C37.1472 0 17 20.1472 17 45C17 69.8528 37.1472 90 62 90Z" fill="#6B56A5"/>
<path fill-rule="evenodd" clip-rule="evenodd" d="M43.3205 45.619C43.3205 48.8404 45.9409 51.4616 49.1622 51.4616C51.1596 51.4616 52.9413 50.5338 53.9832 49.1358C54.2135 52.3951 52.8254 55.1787 46.0971 58.7175C42.9082 60.8116 40.2267 63.8089 38.1586 67.5545C37.5984 67.0828 37.0126 66.6453 36.4 66.2439C29.0171 62.3653 29.6506 59.7552 30.7005 55.4322L30.7585 55.1913C30.7838 55.0867 30.8091 54.9814 30.8345 54.8755C32.2281 53.5713 33.3654 51.9875 34.1407 50.3528C34.9844 51.1315 35.8818 51.8582 36.8437 52.5197C37.6885 53.1007 38.4841 51.7233 37.6456 51.1471C36.6183 50.4406 35.6692 49.6514 34.7832 48.799C38.6096 38.5779 34.3977 33.1115 30.0488 30.2733C26.5596 28.4524 23.289 28.032 20.3284 29.0215C20.0993 29.0981 19.8757 29.182 19.6576 29.2725C19.5311 29.2449 19.4003 29.245 19.2818 29.2774C19.0489 29.3414 18.8876 29.4894 18.7973 29.6767C15.2774 31.5289 13.3793 35.0357 12.8358 36.1779C11.6288 38.7104 10.9762 42.5472 11.7091 46.2943C11.1284 46.6797 10.5289 47.0366 9.91487 47.3645C9.01277 47.8461 9.81393 49.2188 10.7176 48.7371C11.1945 48.4824 11.6627 48.2107 12.1204 47.9225C12.3774 48.7441 12.709 49.5512 13.1243 50.3285C13.8186 51.6276 14.7139 53.0319 15.8266 54.2841C15.8976 54.5864 15.9692 54.8835 16.0401 55.1748C17.0909 59.4985 17.7243 62.1086 10.2747 66.027C6.17908 68.7174 3.10321 73.2175 1.38009 79.041C0.0893338 83.4045 0.00349563 86.9334 0.000316442 87.082C-0.00842634 87.5207 0.339695 87.8839 0.779219 87.8935H0.79591C1.22669 87.8935 1.58117 87.5477 1.59071 87.1154C1.59309 86.9787 1.99049 73.3709 11.0814 67.3956C18.6382 63.426 18.7352 59.9983 17.9161 56.2087C19.3227 57.2402 20.971 57.9554 22.8789 58.0714C23.0601 58.0825 23.2413 58.0881 23.421 58.0881C25.367 58.0881 27.2082 57.4551 28.8337 56.4288C28.0059 60.2315 28.0726 63.6638 35.5941 67.6117C36.2275 68.028 36.8323 68.4916 37.4093 68.9994C36.5711 70.7222 35.8533 72.5849 35.2648 74.5746C33.6879 79.9013 33.5838 84.2059 33.5798 84.3864C33.5711 84.8259 33.92 85.1891 34.3587 85.1978H34.3754C34.807 85.1978 35.1615 84.8521 35.1702 84.4189C35.1734 84.2504 35.6447 67.4842 46.903 60.0862C56.3906 55.1006 56.2178 51.015 55.0843 46.0884C56.8674 47.4924 58.9846 48.4822 61.4624 48.632C61.6817 48.6455 61.8995 48.6518 62.1165 48.6518C64.6144 48.6518 66.9705 47.7881 69.0242 46.4073C67.8913 51.3311 67.7167 55.413 77.1398 60.3604C88.4498 67.7878 88.9362 84.5644 88.9394 84.7337C88.9489 85.1661 89.3026 85.5118 89.7341 85.5118H89.7508C90.1904 85.5023 90.5385 85.139 90.5297 84.7003C90.5258 84.5199 90.4217 80.2153 88.8456 74.8877C87.9622 71.9013 86.7876 69.2009 85.3469 66.8276C86.2289 65.9003 87.1839 65.0935 88.2099 64.418C95.7673 60.4477 95.8629 57.0201 95.0439 53.231C96.4508 54.2629 98.0993 54.9783 100.008 55.0944C100.189 55.1055 100.369 55.1103 100.548 55.1103C102.495 55.1103 104.337 54.477 105.963 53.4502C105.134 57.254 105.2 60.6871 112.722 64.6354C121.88 70.6496 122.277 84.2566 122.279 84.3941C122.289 84.8264 122.643 85.1722 123.074 85.1722H123.091C123.53 85.1626 123.879 84.7994 123.87 84.3607C123.867 84.2128 123.781 80.6832 122.49 76.3197C120.768 70.4962 117.692 65.9961 113.529 63.2667C106.147 59.3882 106.78 56.7781 107.829 52.4545L107.829 52.4543L107.832 52.4408L107.835 52.4322L107.836 52.4277L107.839 52.4157C107.88 52.2444 107.922 52.0711 107.965 51.8957C109.556 50.4063 110.813 48.5525 111.578 46.6751C112.629 44.0976 113.181 41.811 113.351 39.7837C114.912 39.5139 116.14 38.4367 116.862 36.997C117.848 35.033 117.943 32.841 117.41 30.73C116.451 26.942 113.494 22.2455 108.974 22.7669C106.996 22.9943 105.305 24.3656 104.836 26.2727C102.219 25.3572 99.7446 25.2797 97.4556 26.0445C92.9483 27.5522 90.5814 31.903 89.9638 33.2017C88.313 36.667 87.6995 42.5739 90.2532 47.3515C90.9475 48.6507 91.8429 50.0552 92.9558 51.3075C93.0261 51.6067 93.0977 51.9008 93.1679 52.1892L93.1702 52.1988C94.2202 56.5225 94.8536 59.1318 87.4032 63.0502C86.3496 63.7426 85.3717 64.5522 84.467 65.4669C82.6437 62.8185 80.4564 60.6375 77.9465 58.9918C71.3574 55.5297 69.9301 52.782 70.1167 49.5823C70.8793 50.3377 72.0553 51.0923 73.8511 51.2454C75.3922 51.3718 76.8912 50.8472 78.0786 49.756C79.3996 48.5423 80.157 46.812 80.157 45.0094C80.157 44.5063 80.0974 44.012 79.979 43.5311C84.1262 43.7687 87.5494 40.4234 87.5494 36.3278C87.5494 33.9164 86.3787 31.7379 84.4632 30.413C86.54 29.1739 87.8872 26.8976 87.8872 24.4098C87.8872 21.1154 85.6483 18.3734 82.5748 17.6302C83.449 16.3037 83.9196 14.7515 83.9196 13.1396C83.9196 8.62118 80.2428 4.94523 75.7244 4.94523C74.6785 4.94523 73.642 5.1487 72.6732 5.53974C72.0834 2.70867 69.5592 0.566691 66.5667 0.566691C64.8643 0.566691 63.2373 1.27327 62.069 2.4909C60.0875 0.879047 57.6324 0 55.0684 0C48.9357 0 43.946 4.98895 43.946 11.1216C43.946 12.3798 44.1558 13.6069 44.5723 14.784H44.5643C40.1778 14.784 36.6084 18.3527 36.6084 22.74C36.6084 25.7793 38.2981 28.4609 40.8932 29.7986C38.9626 31.0623 37.7569 33.2226 37.7569 35.6332C37.7569 39.2901 40.5816 42.2992 44.163 42.594C43.6169 43.4945 43.3205 44.5357 43.3205 45.619ZM70.4327 47.4101C71.0444 48.3839 72.0048 49.4928 73.9854 49.6606C75.0758 49.756 76.1472 49.3721 77.0032 48.5852C77.9824 47.6855 78.5674 46.3487 78.5674 45.0094C78.5674 44.275 78.3965 43.5669 78.0603 42.9048L77.2663 41.3446L78.964 41.7746C82.6455 42.7061 85.9598 39.8758 85.9598 36.3278C85.9598 33.9903 84.5475 31.9326 82.361 31.0869L80.1777 30.2421L82.4238 29.5832C84.7048 28.9132 86.2976 26.7863 86.2976 24.4098C86.2976 21.4762 83.999 19.1109 81.0639 19.0235L79.2867 18.9718L80.5115 17.6827C81.6838 16.4476 82.33 14.8341 82.33 13.1396C82.33 9.49784 79.3662 6.53483 75.7244 6.53483C74.5648 6.53483 73.4179 6.84639 72.4085 7.43534L71.2274 8.12443L71.2131 6.75658C71.1869 4.22038 69.1021 2.15629 66.5667 2.15629C65.0828 2.15629 63.6745 2.87955 62.8002 4.08924L62.2685 4.82522L61.6096 4.2021C59.8276 2.51713 57.5052 1.5896 55.0684 1.5896C49.8116 1.5896 45.5356 5.86561 45.5356 11.1216C45.5356 12.5904 45.8702 14.0099 46.5315 15.3428L47.2301 16.7528L45.681 16.4786C45.2828 16.4078 44.9172 16.3736 44.5643 16.3736C41.0537 16.3736 38.198 19.2293 38.198 22.74C38.198 25.7165 40.2239 28.2646 43.125 28.9362L46.0268 29.607L43.1758 30.471C40.8852 31.1648 39.3465 33.2393 39.3465 35.6332C39.3465 38.6081 41.7666 41.0283 44.7408 41.0283C45.1072 41.0283 45.4728 40.9917 45.8265 40.9186L49.0152 40.2629L46.487 42.3143C45.4847 43.1273 44.9101 44.3323 44.9101 45.619C44.9101 47.9645 46.8176 49.872 49.1622 49.872C51.429 49.872 53.3103 48.3015 53.3572 46.3709L53.5177 46.3748C53.4309 45.9989 53.3375 45.6143 53.2415 45.2195L53.199 45.0434C53.1229 44.7288 53.0457 44.4091 52.9695 44.0837C51.6019 42.5518 50.5023 40.828 49.6509 39.2343C47.7525 35.6824 47.4277 32.0458 47.5763 29.302C47.2485 29.4358 46.9088 29.5489 46.5586 29.6395L46.1604 28.1C48.9692 27.3736 50.9307 24.8429 50.9307 21.9451C50.9307 21.3697 50.8473 20.7847 50.6828 20.2053L50.2552 18.6928L51.7271 19.2444C52.816 19.6537 53.9399 19.8603 55.0685 19.8603C60.0113 19.8603 64.0894 16.1534 64.5544 11.2376L66.1368 11.387C66.0782 12.0068 65.9703 12.6101 65.8173 13.1933C67.2287 13.5512 68.6863 14.12 70.1599 14.8896C79.8993 21.2496 78.4186 31.1917 75.4739 38.4188C74.5374 40.7162 72.9959 42.984 71.0455 44.7985C71.0085 44.9534 70.9713 45.1072 70.9343 45.2598C70.9121 45.3517 70.89 45.4431 70.868 45.5342L70.868 45.5344C70.7099 46.1852 70.5586 46.8084 70.4327 47.4101ZM70.1834 43.4417C71.8495 41.8324 73.1732 39.851 73.9892 37.8481C77.9576 28.1119 76.3943 20.8585 69.3571 16.259C68.0084 15.5585 66.6314 15.0274 65.3028 14.7034C63.6064 18.7117 59.6566 21.4499 55.0685 21.4499C54.1974 21.4499 53.331 21.345 52.4774 21.1368C52.5052 21.407 52.5203 21.6765 52.5203 21.9451C52.5203 24.5459 51.256 26.9107 49.2435 28.3737C48.972 30.972 49.0792 34.7922 51.0529 38.4856C53.0486 42.2211 56.4917 46.7388 61.5586 47.0455C64.5472 47.2236 67.351 45.9427 69.6096 43.9691C69.6972 43.699 69.9201 43.5046 70.1834 43.4417ZM91.6552 46.6028C93.2662 49.6166 96.0393 53.2608 100.104 53.508C102.479 53.6491 104.736 52.5977 106.557 51.0074C106.647 50.8143 106.81 50.6693 107.004 50.598C108.368 49.2891 109.449 47.6849 110.097 46.0965C113.305 38.2319 112.049 32.3751 106.375 28.6665C103.351 27.0928 100.497 26.7042 97.9603 27.5522C94.0467 28.8605 91.9485 32.7296 91.3985 33.8852C90.3326 36.1225 89.0149 41.6615 91.6552 46.6028ZM106.321 26.8753C106.605 27.0061 106.891 27.1465 107.178 27.2963C107.244 27.3394 107.31 27.3831 107.375 27.4274C108.071 27.0711 108.943 27.145 109.67 27.4325C111.184 28.0302 112.414 29.2169 113.059 30.7143C113.386 31.4709 113.579 32.2768 113.58 33.105C113.582 33.71 113.439 34.482 112.962 34.891C113.228 35.8839 113.386 36.9675 113.407 38.1496C114.555 37.8135 115.327 36.7489 115.739 35.6156C116.345 33.9489 116.221 32.2218 115.706 30.548C115.214 28.9489 114.44 27.3267 113.278 26.1051C112.202 24.9725 110.632 24.1268 109.025 24.3502C107.749 24.5275 106.47 25.539 106.321 26.8753ZM109.405 29.0379C110.351 29.9287 111.214 30.9824 111.895 32.2259C111.741 31.5332 111.486 30.9862 111.051 30.3932C110.673 29.8773 110.115 29.4044 109.504 29.0881C109.471 29.0711 109.438 29.0544 109.405 29.0379ZM14.5264 49.5798C16.1374 52.5936 18.9105 56.2378 22.9751 56.485C27.3566 56.7373 31.3588 52.9276 32.9307 49.1647C31.9275 48.1193 31.0013 47.0009 30.1298 45.8361C30.1668 45.6609 30.1472 45.4748 30.0481 45.3069C28.6358 42.9154 27.5239 40.376 26.7307 37.7142C26.2466 37.9185 25.7626 38.1227 25.2778 38.327C26.5491 40.4645 27.8481 42.6244 29.2871 44.6728C28.4121 44.0119 27.5881 43.2896 26.8194 42.5142C26.1849 41.0927 25.6432 39.6299 25.1983 38.137C24.936 37.258 26.1973 36.762 26.6504 37.5243C28.7034 40.977 30.8244 44.5439 33.5493 47.5301C35.9884 40.4386 34.5424 35.1052 29.2468 31.6435C26.2218 30.0698 23.3693 29.6804 20.8323 30.5292C20.694 30.5755 20.558 30.6249 20.4242 30.6773C21.3785 35.1354 23.6182 39.2848 26.8194 42.5142C27.3693 43.7461 27.9888 44.947 28.6755 46.1097L29.6301 45.1551C29.7947 45.3837 29.9612 45.6108 30.1298 45.8361C30.024 46.3368 29.456 46.7486 28.9609 46.3942C25.4685 43.8979 22.6505 40.5256 20.8012 36.6784C20.7792 36.7555 20.7577 36.8327 20.7364 36.9095L20.7362 36.9102L20.7362 36.9102L20.7361 36.9103L20.7361 36.9103L20.7361 36.9103L20.7361 36.9104L20.7361 36.9104L20.7361 36.9104L20.7361 36.9105L20.7361 36.9105L20.7361 36.9105C20.682 37.1051 20.6286 37.2975 20.5675 37.4812C20.3482 38.1432 20.0851 38.7918 19.7918 39.4253C19.191 40.7208 18.4248 41.9249 17.5489 43.0503C16.3859 44.5436 15.0112 45.863 13.4908 46.9868C13.7324 47.8555 14.0704 48.7265 14.5264 49.5798ZM29.6301 45.1551L29.7628 45.0224C29.6026 44.9079 29.444 44.7913 29.2871 44.6728C29.4005 44.8343 29.5149 44.995 29.6301 45.1551ZM13.1304 45.2631C12.6224 41.7268 13.5104 38.4565 14.2704 36.8622C14.7251 35.9068 16.2381 33.0968 18.9601 31.4125C19.2135 32.5298 19.5451 33.6256 19.9493 34.6925C19.553 35.3486 19.3219 36.0834 19.0902 36.8198C18.9411 37.2939 18.7918 37.7687 18.598 38.2235C18.0496 39.5111 17.3232 40.7311 16.4823 41.8486C15.5184 43.1292 14.3836 44.2698 13.1304 45.2631Z" fill="white"/>
</svg>
