<svg width="95" height="90" viewBox="0 0 95 90" fill="none" xmlns="http://www.w3.org/2000/svg">
<path fill-rule="evenodd" clip-rule="evenodd" d="M45 90C69.8528 90 90 69.8528 90 45C90 20.1472 69.8528 0 45 0C20.1472 0 0 20.1472 0 45C0 69.8528 20.1472 90 45 90Z" fill="#6B56A5"/>
<path fill-rule="evenodd" clip-rule="evenodd" d="M65.4415 3.63623C64.5123 3.63623 63.7557 4.39285 63.7557 5.32206V18.2156C63.7557 19.1448 64.5123 19.9014 65.4415 19.9014H71.3767L71.3006 22.6441L74.4997 19.9014H91.4487C92.3779 19.9014 93.1345 19.1448 93.1345 18.2156V5.32206C93.1345 4.39285 92.3779 3.63623 91.4487 3.63623H65.4415ZM69.5624 26.2889L69.6949 21.5374H65.4415C63.6101 21.5374 62.1198 20.047 62.1198 18.2156V5.32206C62.1198 3.49064 63.6101 2.00031 65.4415 2.00031H91.4487C93.2801 2.00031 94.7704 3.49064 94.7704 5.32206V18.2156C94.7704 20.047 93.2801 21.5374 91.4487 21.5374H75.105L69.5624 26.2889ZM34.5095 38.5738C36.5029 42.3029 39.9391 46.8116 44.9917 47.1183C47.9685 47.2922 50.7651 46.0148 53.0192 44.0469C53.1107 43.779 53.3326 43.585 53.5947 43.5185C55.2575 41.9134 56.5791 39.9375 57.3937 37.9391C61.3146 28.3194 59.8281 21.1277 52.9858 16.5298C52.791 16.7955 52.4459 16.8892 52.1039 16.8405C51.4119 16.7416 50.7403 17.3485 50.2937 17.7943C49.861 18.2278 49.4627 18.7006 49.0872 19.184C48.4585 19.9927 47.8896 20.8471 47.3216 21.7001C47.1927 21.8937 47.0638 22.0871 46.9344 22.28C45.6878 24.14 44.3758 26.0042 42.5419 27.3342C41.5783 28.0327 40.506 28.4564 39.3674 28.7828C38.2026 29.1182 37.2546 29.5223 36.7278 30.6813C36.3895 31.4253 36.2377 32.2496 36.0882 33.0611C36.0381 33.3327 35.9883 33.6029 35.9319 33.8681C35.6857 35.0231 35.3111 36.1388 34.6052 37.0999C34.4445 37.3187 34.2725 37.5285 34.0903 37.7283C34.2201 38.0114 34.3596 38.2934 34.5095 38.5738ZM32.814 38.8516C32.8952 39.0169 32.9794 39.1812 33.0666 39.3444C33.1912 39.5773 33.321 39.813 33.4562 40.0506C33.3241 40.1811 33.2454 40.3718 33.2648 40.6229C33.3662 41.939 32.2301 42.7439 31.2117 43.3296C30.3581 43.8211 29.4927 44.2936 28.6275 44.766L28.6272 44.7661C28.224 44.9863 27.8208 45.2064 27.4188 45.4285C26.8487 45.7434 26.901 46.8133 27.6143 46.9229C27.8169 46.9542 28.0199 46.9859 28.2233 47.0177C30.2373 47.3324 32.2853 47.6525 34.3224 47.5961C35.2446 47.5706 36.2008 47.442 37.0731 47.1234C37.9688 51.3555 37.637 54.5211 29.5217 58.7882C24.533 62.0649 20.7859 67.5502 18.6853 74.6518C17.1091 79.98 17.0036 84.2849 17.0003 84.4657C16.9913 84.9172 17.3496 85.291 17.8019 85.3008H17.8191C18.2624 85.3008 18.6273 84.945 18.6371 84.5C18.6403 84.3307 19.127 67.5747 30.3519 60.1975C39.7787 55.2443 39.6793 51.1772 38.5675 46.2934L38.5936 46.2721C40.3607 47.6415 42.452 48.6031 44.8927 48.7509C45.1119 48.7648 45.3312 48.7714 45.5487 48.7714C48.03 48.7714 50.3715 47.92 52.4162 46.5564C51.2932 51.4626 51.1553 55.5377 60.5523 60.4706C71.8459 67.887 72.3326 84.6447 72.3359 84.814C72.3457 85.259 72.7105 85.6148 73.1539 85.6148H73.171C73.6234 85.6049 73.9816 85.2311 73.9726 84.7796C73.9694 84.5989 73.8639 80.2931 72.2876 74.9649C70.1871 67.8633 66.44 62.3789 61.3825 59.062C53.5168 54.9293 53.022 51.8177 53.8377 47.734C56.4268 49.6461 60.1161 49.68 63.2927 49.4411C63.925 49.3936 64.4673 48.5339 63.871 48.0448C61.4646 46.0694 59.4818 43.6662 58.0103 40.922C57.963 40.8337 57.9074 40.7613 57.8459 40.7034C58.2612 39.9904 58.6213 39.2607 58.92 38.528C61.8679 31.2964 63.3493 21.3467 53.5983 14.9789C49.3613 12.7679 45.3958 12.2542 41.8057 13.4534C36.3401 15.2807 33.4658 20.5664 32.7149 22.1434C30.9374 25.8759 30.1491 31.9366 32.1504 37.3088C31.0839 38.1541 29.7282 38.6322 28.3159 38.5796C27.2632 38.5403 27.2648 40.1762 28.3159 40.2155C29.9334 40.2761 31.5107 39.7667 32.814 38.8516ZM56.8585 42.222C56.1649 43.1831 55.3707 44.0912 54.4939 44.9078C54.4352 45.1536 54.3766 45.3959 54.3186 45.6352L54.3186 45.6352C54.2931 45.7402 54.2678 45.8444 54.2427 45.9479C56.0129 47.6998 58.7405 47.9838 61.2695 47.917C61.7337 48.3637 62.2157 48.7923 62.7144 49.2014L62.7156 49.1987C62.9082 48.7342 63.1009 48.2697 63.2927 47.8051C62.6496 47.8535 61.9671 47.8986 61.2695 47.917C59.5327 46.2461 58.0444 44.3225 56.8585 42.222ZM32.6145 44.3913C33.5031 43.8093 34.3183 43.0078 34.6934 42.0278C35.2031 42.7678 35.7655 43.4983 36.3825 44.1899C36.4711 44.5674 36.5605 44.9371 36.6483 45.3005L36.6485 45.3013L36.6535 45.322L36.6536 45.3221L36.6996 45.5118C35.8769 45.8682 34.9291 45.9609 34.0239 45.965C32.8075 45.97 31.5942 45.8532 30.3868 45.6924C31.1465 45.283 31.8987 44.8602 32.6145 44.3913ZM30.3868 45.6924C30.114 45.8395 29.8403 45.9848 29.5669 46.1299L29.5664 46.1301C29.1232 46.3654 28.6808 46.6002 28.245 46.8411L28.222 46.6664L28.2218 46.6642C28.1641 46.2244 28.1064 45.7851 28.0495 45.3458L28.2876 45.3827C28.9849 45.4906 29.6849 45.599 30.3868 45.6924ZM33.4018 35.9467C31.6995 30.6052 33.0603 25.222 34.1921 22.846C34.8727 21.417 37.4705 16.6279 42.3251 15.005C44.9139 14.1392 47.7645 14.3081 50.7849 15.4828C49.1457 16.1436 47.8965 17.9629 46.9168 19.3897C46.8489 19.4887 46.7822 19.5858 46.7168 19.6805C46.4222 20.1071 46.1348 20.5408 45.847 20.9751C44.9096 22.3897 43.9681 23.8105 42.7627 25.0095C42.0241 25.7441 41.1792 26.3796 40.2148 26.7886C39.7846 26.9713 39.337 27.1025 38.8909 27.2333L38.8908 27.2333C38.1003 27.4651 37.3142 27.6957 36.637 28.2086C35.1868 29.3074 34.8433 31.0215 34.5051 32.7093C34.3899 33.2843 34.2752 33.8562 34.1177 34.3998C33.9563 34.9573 33.7123 35.4767 33.4018 35.9467Z" fill="white"/>
</svg>
