<svg width="25" height="27" viewBox="0 0 25 27" fill="none" xmlns="http://www.w3.org/2000/svg">
<path fill-rule="evenodd" clip-rule="evenodd" d="M24.0056 6.49806C23.4186 5.08141 22.5597 3.86009 21.4281 2.83309C19.3322 0.944564 16.6391 0 13.3496 0H4.768C4.51057 0 4.30059 0.108647 4.13888 0.324328C4.05101 0.441441 4.01367 0.587984 4.01367 0.733115V12.0118H9.40388V5.38639C9.40388 5.27573 9.43915 5.18139 9.51031 5.10379C9.58085 5.02638 9.66707 4.98728 9.76876 4.98728H13.9179C15.5084 4.98728 16.8104 5.49726 17.8237 6.5168C18.371 7.07113 18.7862 7.73046 19.0698 8.49523C19.3534 9.25979 19.4956 10.1189 19.4956 11.0719C19.4956 12.0251 19.3534 12.8869 19.0698 13.6571C18.7862 14.4275 18.371 15.0896 17.8237 15.6438C17.3169 16.1424 16.7371 16.5194 16.0837 16.7742C15.6724 16.9346 15.2338 17.0443 14.7685 17.1037V22.4776C15.858 22.3791 16.879 22.1666 17.8289 21.8344C19.1804 21.3625 20.3798 20.6643 21.4281 19.7405C22.5597 18.7141 23.4186 17.4875 24.0056 16.0602C24.592 14.6335 24.8858 13.0374 24.8858 11.2715C24.8858 9.50591 24.592 7.9145 24.0056 6.49806" fill="white"/>
<path fill-rule="evenodd" clip-rule="evenodd" d="M11.7899 21.6499H8.00284V25.4372H4.84172V21.6499H1.05445V18.4888H4.84172V14.7016H8.00284V18.4888H11.7899V21.6499ZM9.0573 17.419V13.6472H3.794V17.419H0V22.7172H3.794V26.4915H9.0573V22.7172H12.8444V17.419H9.0573Z" fill="white"/>
</svg>
