<?xml version="1.0" standalone="no"?>
<!DOCTYPE svg PUBLIC "-//W3C//DTD SVG 20010904//EN"
 "http://www.w3.org/TR/2001/REC-SVG-20010904/DTD/svg10.dtd">
<svg version="1.0" xmlns="http://www.w3.org/2000/svg"
 width="864.000000pt" height="864.000000pt" viewBox="0 0 864.000000 864.000000"
 preserveAspectRatio="xMidYMid meet">
<metadata>
Created by potrace 1.11, written by Peter Selinger 2001-2013
</metadata>
<g transform="translate(0.000000,864.000000) scale(0.100000,-0.100000)"
fill="#000000" stroke="none">
<path d="M1753 8622 c-52 -21 -98 -64 -126 -117 l-21 -40 -1 -1828 c0 -1176 3
-1831 10 -1835 13 -8 1706 -9 1711 -1 2 4 4 492 4 1085 l1 1079 27 31 c15 18
41 36 57 41 32 10 1420 9 1535 0 77 -7 145 -15 180 -22 43 -9 74 -15 104 -20
75 -14 262 -82 361 -132 185 -93 324 -198 483 -366 28 -30 52 -60 52 -66 0 -6
4 -11 9 -11 18 0 150 -209 209 -330 60 -124 125 -300 138 -375 1 -5 3 -12 4
-15 2 -6 7 -27 14 -65 3 -16 8 -41 12 -55 7 -30 12 -70 19 -130 2 -25 8 -63
11 -85 8 -46 9 -442 1 -525 -10 -105 -41 -296 -57 -350 -6 -19 -13 -44 -15
-55 -7 -32 -59 -189 -65 -195 -3 -3 -6 -12 -8 -20 -3 -17 -122 -259 -135 -275
-4 -5 -31 -44 -60 -87 -90 -133 -197 -246 -327 -347 -36 -28 -70 -55 -76 -60
-31 -26 -241 -141 -256 -141 -10 0 -18 -3 -18 -8 0 -4 -15 -12 -32 -19 -100
-35 -219 -73 -244 -78 -16 -3 -40 -8 -54 -11 -14 -3 -32 -7 -40 -9 -8 -3 -35
-7 -60 -10 -24 -3 -47 -10 -50 -14 -4 -7 -5 -1672 -1 -1704 1 -8 77 -4 152 8
20 3 51 7 70 9 19 2 66 9 104 16 142 24 160 27 160 30 0 1 11 3 25 5 84 12
383 95 392 109 4 6 8 8 8 4 0 -6 68 15 160 50 8 3 17 6 20 7 3 1 22 9 44 18
21 9 40 17 42 17 2 0 38 16 80 35 41 19 80 35 85 35 5 0 9 5 9 12 0 6 3 9 6 5
6 -6 53 17 194 96 79 44 329 204 340 218 3 4 37 30 75 60 75 56 95 73 189 159
160 146 355 371 461 530 16 25 33 47 36 50 3 3 36 57 73 120 36 63 71 122 76
130 23 39 120 243 126 265 3 14 10 25 15 25 5 0 8 3 7 8 -2 7 32 104 52 147 8
18 21 57 26 78 1 4 3 9 4 12 1 3 3 8 5 13 1 4 4 14 8 22 20 52 83 289 103 388
17 88 35 187 39 222 2 14 6 41 8 60 19 133 22 163 33 365 11 214 7 480 -11
665 -12 132 -16 171 -21 192 -2 13 -7 41 -9 63 -6 46 -33 200 -40 230 -2 11
-9 40 -16 65 -13 53 -17 73 -23 99 -22 99 -96 318 -157 466 -7 17 -13 32 -14
35 -2 8 -46 101 -85 180 -110 224 -279 478 -444 670 -37 43 -314 319 -342 340
-66 52 -180 146 -186 155 -4 5 -8 7 -8 3 0 -4 -8 -1 -17 7 -45 36 -238 162
-313 204 -103 56 -253 131 -265 131 -8 0 -15 4 -15 8 0 4 -17 14 -37 21 -21 7
-56 21 -78 31 -22 9 -56 23 -75 30 -19 6 -44 16 -55 20 -84 33 -336 108 -417
124 -12 2 -43 9 -68 16 -25 6 -59 13 -76 14 -17 2 -41 7 -53 11 -13 4 -33 8
-44 10 -12 1 -44 6 -72 10 -27 4 -61 9 -75 11 -14 1 -41 5 -60 8 -19 3 -64 8
-100 11 -36 4 -90 9 -120 12 -30 4 -759 8 -1620 9 -1462 3 -1568 2 -1607 -14z"/>
<path d="M1541 4270 c-4 -3 -7 -272 -7 -598 1 -386 -3 -596 -9 -600 -5 -4
-278 -7 -605 -7 l-595 0 -3 -847 -2 -848 607 -2 607 -3 0 -601 0 -600 256 1
c140 0 263 -3 273 -7 9 -5 17 -5 17 -1 0 10 292 9 308 -1 7 -4 12 -4 12 1 0
10 292 9 308 -1 7 -4 12 -4 12 1 0 10 292 9 308 -1 7 -4 12 -4 12 1 0 4 40 8
89 7 l89 -1 0 571 c1 314 1 586 1 604 l1 32 605 0 605 0 0 848 0 847 -606 1
-607 0 2 602 c1 569 0 602 -16 603 -83 4 -1657 3 -1662 -1z m1336 -355 c8 -23
6 -112 -2 -126 -4 -5 -2 -9 2 -9 8 0 8 -73 0 -88 -3 -4 -1 -16 3 -27 4 -11 4
-32 -1 -47 -4 -16 -5 -28 -1 -28 6 0 7 -125 1 -140 -1 -3 0 -9 1 -15 2 -13 2
-87 0 -100 -1 -5 -2 -14 -1 -19 6 -29 6 -86 0 -86 -4 0 -4 -15 0 -33 5 -18 5
-41 1 -52 -4 -11 -5 -24 -2 -29 8 -14 8 -126 -1 -126 -5 0 -5 -4 -2 -10 8 -12
10 -159 2 -166 -3 -3 -3 -13 0 -21 3 -8 6 -27 7 -42 l1 -26 597 0 c328 0 600
-4 604 -8 5 -5 10 -922 5 -994 -1 -9 -133 -12 -533 -12 -293 0 -568 0 -611 -1
-48 0 -76 -4 -72 -10 5 -9 9 -141 5 -165 -2 -5 -1 -14 0 -20 2 -13 2 -87 0
-100 -1 -5 -2 -14 -1 -19 6 -29 6 -86 0 -86 -4 0 -4 -15 0 -33 5 -18 5 -41 1
-52 -4 -11 -5 -24 -2 -29 8 -14 8 -126 0 -126 -4 0 -5 -6 -2 -14 9 -23 10
-186 1 -186 -5 0 -5 -5 -1 -11 9 -16 11 -109 1 -109 -4 0 -4 -8 0 -18 5 -9 7
-30 6 -47 -5 -44 -5 -45 -3 -105 1 -30 2 -60 1 -67 -1 -10 -117 -12 -506 -13
l-505 0 0 605 c0 477 -3 605 -12 605 -7 0 -280 2 -607 3 l-594 2 -1 475 c-1
261 1 489 4 505 l6 30 133 0 c73 0 135 -3 138 -8 2 -4 12 -3 21 1 9 5 218 8
465 7 l447 -1 0 601 c0 331 2 604 4 606 2 2 228 4 500 4 488 0 496 0 503 -20z"/>
</g>
</svg>
