<svg width="14" height="50" viewBox="0 0 14 50" fill="none" xmlns="http://www.w3.org/2000/svg">
<path d="M8.4 30.87C9.07333 30.87 9.60333 31.1167 9.99 31.61C10.37 32.1033 10.56 32.7333 10.56 33.5C10.56 34.1067 10.3933 34.6933 10.06 35.26C9.88667 35.54 9.64333 35.77 9.33 35.95C9.01 36.13 8.64667 36.22 8.24 36.22L8.18 34.96C8.54 34.96 8.82 34.8067 9.02 34.5C9.22 34.1933 9.32 33.8533 9.32 33.48C9.32 32.6467 9.02667 32.23 8.44 32.23C7.96 32.23 7.67667 32.5133 7.59 33.08L7.47 34.24C7.38333 34.82 7.17667 35.28 6.85 35.62C6.52333 35.96 6.05333 36.13 5.44 36.13C4.82667 36.13 4.32 35.8867 3.92 35.4C3.52 34.9133 3.32 34.3 3.32 33.56C3.32 32.8133 3.51 32.2133 3.89 31.76C4.26333 31.3067 4.74667 31.08 5.34 31.08L5.4 32.32C4.82 32.4333 4.53 32.8233 4.53 33.49C4.53 33.8967 4.61667 34.2167 4.79 34.45C4.96333 34.6767 5.17 34.79 5.41 34.79C5.64333 34.79 5.83 34.7067 5.97 34.54C6.10333 34.3733 6.18667 34.1667 6.22 33.92L6.34 32.78C6.51333 31.5067 7.2 30.87 8.4 30.87ZM7.74 26.1618V24.8718C8.64667 24.8718 9.34333 25.0985 9.83 25.5518C10.3167 26.0051 10.56 26.6451 10.56 27.4718C10.56 29.2918 9.49 30.2018 7.35 30.2018H6.75C5.06333 30.2018 4.00667 29.7351 3.58 28.8018C3.40667 28.4351 3.32 27.9918 3.32 27.4718C3.32 26.7118 3.53 26.0951 3.95 25.6218C4.36333 25.1418 4.96333 24.9018 5.75 24.9018V26.2018C5.35667 26.2751 5.06 26.4051 4.86 26.5918C4.66 26.7785 4.56 27.0718 4.56 27.4718C4.56 27.9385 4.70667 28.2851 5 28.5118C5.20667 28.6718 5.56 28.7651 6.06 28.7918C6.22 28.8051 6.43667 28.8118 6.71 28.8118H7.33C8.09667 28.8118 8.62 28.7051 8.9 28.4918C9.18 28.2718 9.32 27.9318 9.32 27.4718C9.32 27.0051 9.19333 26.6851 8.94 26.5118C8.68 26.3318 8.28 26.2151 7.74 26.1618ZM10.5 18.2976V19.9076L7.86 21.2976V22.2976H10.5V23.6876H4.91C4.37667 23.6876 3.99 23.5642 3.75 23.3176C3.50333 23.0709 3.38 22.6576 3.38 22.0776V20.8976C3.38 20.1909 3.59667 19.6309 4.03 19.2176C4.45667 18.7976 5 18.5876 5.66 18.5876C6.14 18.5876 6.55667 18.7142 6.91 18.9676C7.25667 19.2142 7.49667 19.5209 7.63 19.8876L10.5 18.2976ZM6.7 20.9876C6.7 20.6942 6.6 20.4542 6.4 20.2676C6.19333 20.0742 5.94 19.9776 5.64 19.9776C5.33333 19.9776 5.08667 20.0709 4.9 20.2576C4.71333 20.4376 4.62 20.6809 4.62 20.9876V21.6776C4.62 22.0909 4.83 22.2976 5.25 22.2976H6.7V20.9876ZM6.61 11.9246H7.15C8.34333 11.9246 9.21 12.1513 9.75 12.6046C10.29 13.0513 10.56 13.7713 10.56 14.7646C10.56 15.7579 10.29 16.4779 9.75 16.9246C9.21 17.3646 8.33333 17.5846 7.12 17.5846H6.6C5.49333 17.5846 4.67 17.3613 4.13 16.9146C3.59 16.4613 3.32 15.7479 3.32 14.7746C3.32 13.7946 3.59333 13.0746 4.14 12.6146C4.68667 12.1546 5.51 11.9246 6.61 11.9246ZM7.12 13.3146H6.75C6.11 13.3146 5.6 13.3946 5.22 13.5546C4.78 13.7413 4.56 14.1413 4.56 14.7546C4.56 15.3746 4.78 15.7779 5.22 15.9646C5.58 16.1179 6.09 16.1946 6.75 16.1946H7.12C7.98 16.1946 8.56 16.0746 8.86 15.8346C8.98667 15.7413 9.09667 15.6046 9.19 15.4246C9.27667 15.2379 9.32 15.0179 9.32 14.7646C9.32 14.5046 9.27667 14.2846 9.19 14.1046C9.10333 13.9246 8.99667 13.7846 8.87 13.6846C8.74333 13.5846 8.57667 13.5079 8.37 13.4546C8.04333 13.3613 7.62667 13.3146 7.12 13.3146ZM10.5 6.31906V8.43906C10.5 9.23906 10.3467 9.81906 10.04 10.1791C9.72667 10.5324 9.22 10.7091 8.52 10.7091H3.38V9.31906H8.52C8.8 9.31906 8.99333 9.25573 9.1 9.12906C9.20667 9.0024 9.26 8.7724 9.26 8.43906V6.31906H10.5ZM10.5 0.821015V2.94102C10.5 3.74102 10.3467 4.32102 10.04 4.68102C9.72667 5.03435 9.22 5.21102 8.52 5.21102H3.38L3.38 3.82102H8.52C8.8 3.82102 8.99333 3.75768 9.1 3.63102C9.20667 3.50435 9.26 3.27435 9.26 2.94102V0.821015H10.5Z" fill="#6B56A5"/>
<rect x="7" y="49.2427" width="6" height="2" rx="1" transform="rotate(-135 7 49.2427)" fill="#6B56A5"/>
<rect x="5.58582" y="47.8285" width="6" height="2" rx="1" transform="rotate(-45 5.58582 47.8285)" fill="#6B56A5"/>
</svg>
