<svg width="19" height="19" viewBox="0 0 19 19" fill="#fff" xmlns="http://www.w3.org/2000/svg">
<path fill-rule="evenodd" clip-rule="evenodd" d="M14.4815 8.25581C14.4815 9.92502 13.8274 11.4814 12.6544 12.6544C11.4814 13.8274 9.90246 14.4815 8.25581 14.4815C6.60916 14.4815 5.03018 13.8274 3.85722 12.6544C2.68427 11.4814 2.03012 9.90246 2.03012 8.25581C2.03012 6.5866 2.68427 5.03018 3.85722 3.85722C5.03018 2.68427 6.60916 2.03012 8.25581 2.03012C9.92502 2.03012 11.4814 2.68427 12.6544 3.85722C13.8274 5.03018 14.4815 6.5866 14.4815 8.25581M18.0455 16.6244L14.7522 13.3537C17.3237 10.0604 17.053 5.36853 14.098 2.41358C12.5416 0.85716 10.4664 0 8.25581 0C6.04524 0 3.97001 0.85716 2.41358 2.41358C0.85716 3.97001 0 6.04524 0 8.25581C0 10.4664 0.85716 12.5416 2.41358 14.098C3.97001 15.6542 6.04524 16.5116 8.25581 16.5116C10.0829 16.5116 11.8875 15.9026 13.3311 14.752L16.6018 18.068C16.8049 18.2711 17.053 18.3611 17.3237 18.3611C17.5943 18.3611 17.8425 18.2483 18.0455 18.068C18.4515 17.6843 18.4515 17.0304 18.0455 16.6244" fill="white"/>
</svg>
